<?xml version="1.0" encoding="UTF-8" standalone="no"?>
<!DOCTYPE svg PUBLIC "-//W3C//DTD SVG 1.1//EN"
 "http://www.w3.org/Graphics/SVG/1.1/DTD/svg11.dtd">
<!-- Generated by graphviz version 8.0.1 (20230327.1645)
 -->
<!-- Title: dependency&#45;cruiser output Pages: 1 -->
<svg width="537pt" height="398pt"
 viewBox="0.00 0.00 537.00 398.00" xmlns="http://www.w3.org/2000/svg" xmlns:xlink="http://www.w3.org/1999/xlink">
<g id="graph0" class="graph" transform="scale(1 1) rotate(0) translate(4 394)">
<title>dependency&#45;cruiser output</title>
<polygon fill="white" stroke="none" points="-4,4 -4,-394 533,-394 533,4 -4,4"/>
<g id="clust1" class="cluster">
<title>cluster_src</title>
<path fill="#ffffff" stroke="black" stroke-width="2" d="M20,-8C20,-8 509,-8 509,-8 515,-8 521,-14 521,-20 521,-20 521,-370 521,-370 521,-376 515,-382 509,-382 509,-382 20,-382 20,-382 14,-382 8,-376 8,-370 8,-370 8,-20 8,-20 8,-14 14,-8 20,-8"/>
<text text-anchor="middle" x="264.5" y="-370.8" font-family="Helvetica,sans-Serif" font-weight="bold" font-size="9.00">src</text>
</g>
<g id="clust2" class="cluster">
<title>cluster_src/assets</title>
<path fill="#ffffff" stroke="black" stroke-width="2" d="M350,-26C350,-26 414,-26 414,-26 420,-26 426,-32 426,-38 426,-38 426,-100 426,-100 426,-106 420,-112 414,-112 414,-112 350,-112 350,-112 344,-112 338,-106 338,-100 338,-100 338,-38 338,-38 338,-32 344,-26 350,-26"/>
<text text-anchor="middle" x="382" y="-100.8" font-family="Helvetica,sans-Serif" font-weight="bold" font-size="9.00">assets</text>
</g>
<g id="clust3" class="cluster">
<title>cluster_src/assets/images</title>
<path fill="#ffffff" stroke="black" stroke-width="2" d="M358,-34C358,-34 406,-34 406,-34 412,-34 418,-40 418,-46 418,-46 418,-74 418,-74 418,-80 412,-86 406,-86 406,-86 358,-86 358,-86 352,-86 346,-80 346,-74 346,-74 346,-46 346,-46 346,-40 352,-34 358,-34"/>
<text text-anchor="middle" x="382" y="-74.8" font-family="Helvetica,sans-Serif" font-weight="bold" font-size="9.00">images</text>
</g>
<g id="clust4" class="cluster">
<title>cluster_src/js</title>
<path fill="#ffffff" stroke="black" stroke-width="2" d="M237,-120C237,-120 501,-120 501,-120 507,-120 513,-126 513,-132 513,-132 513,-344 513,-344 513,-350 507,-356 501,-356 501,-356 237,-356 237,-356 231,-356 225,-350 225,-344 225,-344 225,-132 225,-132 225,-126 231,-120 237,-120"/>
<text text-anchor="middle" x="369" y="-344.8" font-family="Helvetica,sans-Serif" font-weight="bold" font-size="9.00">js</text>
</g>
<g id="clust5" class="cluster">
<title>cluster_src/js/components</title>
<path fill="#ffffff" stroke="black" stroke-width="2" d="M446,-128C446,-128 493,-128 493,-128 499,-128 505,-134 505,-140 505,-140 505,-198 505,-198 505,-204 499,-210 493,-210 493,-210 446,-210 446,-210 440,-210 434,-204 434,-198 434,-198 434,-140 434,-140 434,-134 440,-128 446,-128"/>
<text text-anchor="middle" x="469.5" y="-198.8" font-family="Helvetica,sans-Serif" font-weight="bold" font-size="9.00">components</text>
</g>
<g id="clust6" class="cluster">
<title>cluster_src/js/engine</title>
<path fill="#ffffff" stroke="black" stroke-width="2" d="M245,-248C245,-248 318,-248 318,-248 324,-248 330,-254 330,-260 330,-260 330,-318 330,-318 330,-324 324,-330 318,-330 318,-330 245,-330 245,-330 239,-330 233,-324 233,-318 233,-318 233,-260 233,-260 233,-254 239,-248 245,-248"/>
<text text-anchor="middle" x="281.5" y="-318.8" font-family="Helvetica,sans-Serif" font-weight="bold" font-size="9.00">engine</text>
</g>
<g id="clust7" class="cluster">
<title>cluster_src/js/main</title>
<path fill="#ffffff" stroke="black" stroke-width="2" d="M257.5,-128C257.5,-128 305.5,-128 305.5,-128 311.5,-128 317.5,-134 317.5,-140 317.5,-140 317.5,-228 317.5,-228 317.5,-234 311.5,-240 305.5,-240 305.5,-240 257.5,-240 257.5,-240 251.5,-240 245.5,-234 245.5,-228 245.5,-228 245.5,-140 245.5,-140 245.5,-134 251.5,-128 257.5,-128"/>
<text text-anchor="middle" x="281.5" y="-228.8" font-family="Helvetica,sans-Serif" font-weight="bold" font-size="9.00">main</text>
</g>
<g id="clust8" class="cluster">
<title>cluster_src/js/pages</title>
<path fill="#ffffff" stroke="black" stroke-width="2" d="M355.5,-158C355.5,-158 408.5,-158 408.5,-158 414.5,-158 420.5,-164 420.5,-170 420.5,-170 420.5,-258 420.5,-258 420.5,-264 414.5,-270 408.5,-270 408.5,-270 355.5,-270 355.5,-270 349.5,-270 343.5,-264 343.5,-258 343.5,-258 343.5,-170 343.5,-170 343.5,-164 349.5,-158 355.5,-158"/>
<text text-anchor="middle" x="382" y="-258.8" font-family="Helvetica,sans-Serif" font-weight="bold" font-size="9.00">pages</text>
</g>
<!-- src/App.js -->
<g id="node1" class="node">
<title>src/App.js</title>
<g id="a_node1"><a xlink:href="src/App.js" xlink:title="App.js">
<path fill="#ffffcc" stroke="black" d="M171,-184C171,-184 129,-184 129,-184 126,-184 123,-181 123,-178 123,-178 123,-172 123,-172 123,-169 126,-166 129,-166 129,-166 171,-166 171,-166 174,-166 177,-169 177,-172 177,-172 177,-178 177,-178 177,-181 174,-184 171,-184"/>
<text text-anchor="start" x="137" y="-172.8" font-family="Helvetica,sans-Serif" font-size="9.00">App.js</text>
</a>
</g>
</g>
<!-- src/App.scss -->
<g id="node2" class="node">
<title>src/App.scss</title>
<g id="a_node2"><a xlink:href="src/App.scss" xlink:title="App.scss">
<path fill="#ffffcc" stroke="black" d="M302.5,-34C302.5,-34 260.5,-34 260.5,-34 257.5,-34 254.5,-31 254.5,-28 254.5,-28 254.5,-22 254.5,-22 254.5,-19 257.5,-16 260.5,-16 260.5,-16 302.5,-16 302.5,-16 305.5,-16 308.5,-19 308.5,-22 308.5,-22 308.5,-28 308.5,-28 308.5,-31 305.5,-34 302.5,-34"/>
<text text-anchor="start" x="263" y="-22.8" font-family="Helvetica,sans-Serif" font-size="9.00">App.scss</text>
</a>
</g>
</g>
<!-- src/App.js&#45;&gt;src/App.scss -->
<g id="edge1" class="edge">
<title>src/App.js&#45;&gt;src/App.scss</title>
<path fill="none" stroke="#000000" stroke-width="2" stroke-opacity="0.200000" d="M153.58,-165.79C160.73,-141.88 183.15,-77.31 225,-43 230.97,-38.11 238.3,-34.53 245.65,-31.92"/>
<polygon fill="#000000" fill-opacity="0.200000" stroke="#000000" stroke-width="2" stroke-opacity="0.200000" points="247.1,-33.06 252.22,-29.29 245.87,-29.05 247.1,-33.06"/>
</g>
<!-- src/js/components/Screen.js -->
<g id="node3" class="node">
<title>src/js/components/Screen.js</title>
<g id="a_node3"><a xlink:href="src/js/components/Screen.js" xlink:title="Screen.js">
<path fill="#ffffcc" stroke="black" d="M491,-154C491,-154 448,-154 448,-154 445,-154 442,-151 442,-148 442,-148 442,-142 442,-142 442,-139 445,-136 448,-136 448,-136 491,-136 491,-136 494,-136 497,-139 497,-142 497,-142 497,-148 497,-148 497,-151 494,-154 491,-154"/>
<text text-anchor="start" x="450" y="-142.8" font-family="Helvetica,sans-Serif" font-size="9.00">Screen.js</text>
</a>
</g>
</g>
<!-- src/App.js&#45;&gt;src/js/components/Screen.js -->
<g id="edge2" class="edge">
<title>src/App.js&#45;&gt;src/js/components/Screen.js</title>
<path fill="none" stroke="#000000" stroke-width="2" stroke-opacity="0.200000" d="M165.2,-165.71C196.49,-144.97 273.07,-92.52 330,-40 333.93,-36.37 333.12,-33.19 338,-31 373.68,-14.98 393.88,-8.69 426,-31 457.23,-52.69 465.55,-100.24 467.74,-126.56"/>
<polygon fill="#000000" fill-opacity="0.200000" stroke="#000000" stroke-width="2" stroke-opacity="0.200000" points="465.84,-126.66 468.32,-132.51 470.03,-126.39 465.84,-126.66"/>
</g>
<!-- src/js/engine/Configuration.js -->
<g id="node4" class="node">
<title>src/js/engine/Configuration.js</title>
<g id="a_node4"><a xlink:href="src/js/engine/Configuration.js" xlink:title="Configuration.js">
<path fill="#ffffcc" stroke="black" d="M316,-304C316,-304 247,-304 247,-304 244,-304 241,-301 241,-298 241,-298 241,-292 241,-292 241,-289 244,-286 247,-286 247,-286 316,-286 316,-286 319,-286 322,-289 322,-292 322,-292 322,-298 322,-298 322,-301 319,-304 316,-304"/>
<text text-anchor="start" x="249" y="-292.8" font-family="Helvetica,sans-Serif" font-size="9.00">Configuration.js</text>
</a>
</g>
</g>
<!-- src/App.js&#45;&gt;src/js/engine/Configuration.js -->
<g id="edge3" class="edge">
<title>src/App.js&#45;&gt;src/js/engine/Configuration.js</title>
<path fill="none" stroke="#000000" stroke-width="2" stroke-opacity="0.200000" d="M177.24,-174.05C191.12,-175.04 207.26,-178.85 217,-190 230.21,-205.12 212.1,-264.61 225,-280 227.18,-282.6 229.76,-284.77 232.6,-286.59"/>
<polygon fill="#000000" fill-opacity="0.200000" stroke="#000000" stroke-width="2" stroke-opacity="0.200000" points="232.29,-288.79 238.6,-289.6 234.18,-285.04 232.29,-288.79"/>
</g>
<!-- src/js/engine/Engine.js -->
<g id="node5" class="node">
<title>src/js/engine/Engine.js</title>
<g id="a_node5"><a xlink:href="src/js/engine/Engine.js" xlink:title="Engine.js">
<path fill="#ffffcc" stroke="black" d="M303,-274C303,-274 260,-274 260,-274 257,-274 254,-271 254,-268 254,-268 254,-262 254,-262 254,-259 257,-256 260,-256 260,-256 303,-256 303,-256 306,-256 309,-259 309,-262 309,-262 309,-268 309,-268 309,-271 306,-274 303,-274"/>
<text text-anchor="start" x="262" y="-262.8" font-family="Helvetica,sans-Serif" font-size="9.00">Engine.js</text>
</a>
</g>
</g>
<!-- src/App.js&#45;&gt;src/js/engine/Engine.js -->
<g id="edge4" class="edge">
<title>src/App.js&#45;&gt;src/js/engine/Engine.js</title>
<path fill="none" stroke="#000000" stroke-width="2" stroke-opacity="0.200000" d="M177.31,-174.31C191.03,-175.41 207,-179.24 217,-190 233.21,-207.45 210.18,-224.35 225,-243 230.16,-249.49 237.52,-254.08 245.2,-257.31"/>
<polygon fill="#000000" fill-opacity="0.200000" stroke="#000000" stroke-width="2" stroke-opacity="0.200000" points="245.21,-259.27 251.57,-259.32 246.63,-255.31 245.21,-259.27"/>
</g>
<!-- src/js/main/Control.js -->
<g id="node6" class="node">
<title>src/js/main/Control.js</title>
<g id="a_node6"><a xlink:href="src/js/main/Control.js" xlink:title="Control.js">
<path fill="#ffffcc" stroke="black" d="M303.5,-214C303.5,-214 259.5,-214 259.5,-214 256.5,-214 253.5,-211 253.5,-208 253.5,-208 253.5,-202 253.5,-202 253.5,-199 256.5,-196 259.5,-196 259.5,-196 303.5,-196 303.5,-196 306.5,-196 309.5,-199 309.5,-202 309.5,-202 309.5,-208 309.5,-208 309.5,-211 306.5,-214 303.5,-214"/>
<text text-anchor="start" x="261.5" y="-202.8" font-family="Helvetica,sans-Serif" font-size="9.00">Control.js</text>
</a>
</g>
</g>
<!-- src/App.js&#45;&gt;src/js/main/Control.js -->
<g id="edge5" class="edge">
<title>src/App.js&#45;&gt;src/js/main/Control.js</title>
<path fill="none" stroke="#000000" stroke-width="2" stroke-opacity="0.200000" d="M177.35,-180.93C189.43,-183.67 203.95,-186.98 217,-190 225.86,-192.05 235.4,-194.29 244.33,-196.4"/>
<polygon fill="#000000" fill-opacity="0.200000" stroke="#000000" stroke-width="2" stroke-opacity="0.200000" points="244.68,-199.11 251.01,-198.45 245.65,-195.03 244.68,-199.11"/>
</g>
<!-- src/js/main/Map.js -->
<g id="node7" class="node">
<title>src/js/main/Map.js</title>
<g id="a_node7"><a xlink:href="src/js/main/Map.js" xlink:title="Map.js">
<path fill="#ffffcc" stroke="black" d="M302.5,-184C302.5,-184 260.5,-184 260.5,-184 257.5,-184 254.5,-181 254.5,-178 254.5,-178 254.5,-172 254.5,-172 254.5,-169 257.5,-166 260.5,-166 260.5,-166 302.5,-166 302.5,-166 305.5,-166 308.5,-169 308.5,-172 308.5,-172 308.5,-178 308.5,-178 308.5,-181 305.5,-184 302.5,-184"/>
<text text-anchor="start" x="267.5" y="-172.8" font-family="Helvetica,sans-Serif" font-size="9.00">Map.js</text>
</a>
</g>
</g>
<!-- src/App.js&#45;&gt;src/js/main/Map.js -->
<g id="edge6" class="edge">
<title>src/App.js&#45;&gt;src/js/main/Map.js</title>
<path fill="none" stroke="#000000" stroke-width="2" stroke-opacity="0.200000" d="M177.21,-175C196.87,-175 223.98,-175 245.49,-175"/>
<polygon fill="#000000" fill-opacity="0.200000" stroke="#000000" stroke-width="2" stroke-opacity="0.200000" points="245.33,-177.1 251.33,-175 245.33,-172.9 245.33,-177.1"/>
</g>
<!-- src/js/main/Panel.js -->
<g id="node8" class="node">
<title>src/js/main/Panel.js</title>
<g id="a_node8"><a xlink:href="src/js/main/Panel.js" xlink:title="Panel.js">
<path fill="#ffffcc" stroke="black" d="M302.5,-154C302.5,-154 260.5,-154 260.5,-154 257.5,-154 254.5,-151 254.5,-148 254.5,-148 254.5,-142 254.5,-142 254.5,-139 257.5,-136 260.5,-136 260.5,-136 302.5,-136 302.5,-136 305.5,-136 308.5,-139 308.5,-142 308.5,-142 308.5,-148 308.5,-148 308.5,-151 305.5,-154 302.5,-154"/>
<text text-anchor="start" x="264.5" y="-142.8" font-family="Helvetica,sans-Serif" font-size="9.00">Panel.js</text>
</a>
</g>
</g>
<!-- src/App.js&#45;&gt;src/js/main/Panel.js -->
<g id="edge7" class="edge">
<title>src/App.js&#45;&gt;src/js/main/Panel.js</title>
<path fill="none" stroke="#000000" stroke-width="2" stroke-opacity="0.200000" d="M177.21,-168.93C196.95,-164.35 224.22,-158.04 245.78,-153.04"/>
<polygon fill="#000000" fill-opacity="0.200000" stroke="#000000" stroke-width="2" stroke-opacity="0.200000" points="246.96,-154.46 252.33,-151.06 246.01,-150.37 246.96,-154.46"/>
</g>
<!-- src/js/pages/History.js -->
<g id="node14" class="node">
<title>src/js/pages/History.js</title>
<g id="a_node14"><a xlink:href="src/js/pages/History.js" xlink:title="History.js">
<path fill="#ffffcc" stroke="black" d="M403,-244C403,-244 361,-244 361,-244 358,-244 355,-241 355,-238 355,-238 355,-232 355,-232 355,-229 358,-226 361,-226 361,-226 403,-226 403,-226 406,-226 409,-229 409,-232 409,-232 409,-238 409,-238 409,-241 406,-244 403,-244"/>
<text text-anchor="start" x="363" y="-232.8" font-family="Helvetica,sans-Serif" font-size="9.00">History.js</text>
</a>
</g>
</g>
<!-- src/js/main/Control.js&#45;&gt;src/js/pages/History.js -->
<g id="edge11" class="edge">
<title>src/js/main/Control.js&#45;&gt;src/js/pages/History.js</title>
<path fill="none" stroke="#000000" stroke-width="2" stroke-opacity="0.200000" d="M309.94,-213.36C321.21,-216.79 334.38,-220.8 346.31,-224.43"/>
<polygon fill="#000000" fill-opacity="0.200000" stroke="#000000" stroke-width="2" stroke-opacity="0.200000" points="346.38,-227.26 352.73,-227 347.6,-223.24 346.38,-227.26"/>
</g>
<!-- src/js/pages/Location.js -->
<g id="node15" class="node">
<title>src/js/pages/Location.js</title>
<g id="a_node15"><a xlink:href="src/js/pages/Location.js" xlink:title="Location.js">
<path fill="#ffffcc" stroke="black" d="M406.5,-214C406.5,-214 357.5,-214 357.5,-214 354.5,-214 351.5,-211 351.5,-208 351.5,-208 351.5,-202 351.5,-202 351.5,-199 354.5,-196 357.5,-196 357.5,-196 406.5,-196 406.5,-196 409.5,-196 412.5,-199 412.5,-202 412.5,-202 412.5,-208 412.5,-208 412.5,-211 409.5,-214 406.5,-214"/>
<text text-anchor="start" x="359.5" y="-202.8" font-family="Helvetica,sans-Serif" font-size="9.00">Location.js</text>
</a>
</g>
</g>
<!-- src/js/main/Control.js&#45;&gt;src/js/pages/Location.js -->
<g id="edge12" class="edge">
<title>src/js/main/Control.js&#45;&gt;src/js/pages/Location.js</title>
<path fill="none" stroke="#000000" stroke-width="2" stroke-opacity="0.200000" d="M309.94,-205C319.99,-205 331.56,-205 342.4,-205"/>
<polygon fill="#000000" fill-opacity="0.200000" stroke="#000000" stroke-width="2" stroke-opacity="0.200000" points="342.29,-207.1 348.29,-205 342.29,-202.9 342.29,-207.1"/>
</g>
<!-- src/js/pages/Settings.js -->
<g id="node16" class="node">
<title>src/js/pages/Settings.js</title>
<g id="a_node16"><a xlink:href="src/js/pages/Settings.js" xlink:title="Settings.js">
<path fill="#ffffcc" stroke="black" d="M405.5,-184C405.5,-184 358.5,-184 358.5,-184 355.5,-184 352.5,-181 352.5,-178 352.5,-178 352.5,-172 352.5,-172 352.5,-169 355.5,-166 358.5,-166 358.5,-166 405.5,-166 405.5,-166 408.5,-166 411.5,-169 411.5,-172 411.5,-172 411.5,-178 411.5,-178 411.5,-181 408.5,-184 405.5,-184"/>
<text text-anchor="start" x="360.5" y="-172.8" font-family="Helvetica,sans-Serif" font-size="9.00">Settings.js</text>
</a>
</g>
</g>
<!-- src/js/main/Control.js&#45;&gt;src/js/pages/Settings.js -->
<g id="edge13" class="edge">
<title>src/js/main/Control.js&#45;&gt;src/js/pages/Settings.js</title>
<path fill="none" stroke="#000000" stroke-width="2" stroke-opacity="0.200000" d="M309.94,-196.64C320.46,-193.44 332.65,-189.73 343.93,-186.29"/>
<polygon fill="#000000" fill-opacity="0.200000" stroke="#000000" stroke-width="2" stroke-opacity="0.200000" points="345.21,-187.49 350.34,-183.73 343.98,-183.47 345.21,-187.49"/>
</g>
<!-- src/assets/images/cross.png -->
<g id="node9" class="node">
<title>src/assets/images/cross.png</title>
<g id="a_node9"><a xlink:href="src/assets/images/cross.png" xlink:title="cross.png">
<path fill="#ffffcc" stroke="black" d="M404,-60C404,-60 360,-60 360,-60 357,-60 354,-57 354,-54 354,-54 354,-48 354,-48 354,-45 357,-42 360,-42 360,-42 404,-42 404,-42 407,-42 410,-45 410,-48 410,-48 410,-54 410,-54 410,-57 407,-60 404,-60"/>
<text text-anchor="start" x="362" y="-48.8" font-family="Helvetica,sans-Serif" font-size="9.00">cross.png</text>
</a>
</g>
</g>
<!-- src/js/main/Map.js&#45;&gt;src/assets/images/cross.png -->
<g id="edge14" class="edge">
<title>src/js/main/Map.js&#45;&gt;src/assets/images/cross.png</title>
<path fill="none" stroke="#000000" stroke-width="2" stroke-opacity="0.200000" d="M308.64,-170.87C316.2,-168.66 324.02,-165.24 330,-160 357.74,-135.69 371.48,-93.06 377.33,-68.95"/>
<polygon fill="#000000" fill-opacity="0.200000" stroke="#000000" stroke-width="2" stroke-opacity="0.200000" points="379.98,-68.73 379.26,-62.41 375.89,-67.8 379.98,-68.73"/>
</g>
<!-- src/index.js -->
<g id="node10" class="node">
<title>src/index.js</title>
<g id="a_node10"><a xlink:href="src/index.js" xlink:title="index.js">
<path fill="#ffffcc" stroke="black" d="M64,-214C64,-214 22,-214 22,-214 19,-214 16,-211 16,-208 16,-208 16,-202 16,-202 16,-199 19,-196 22,-196 22,-196 64,-196 64,-196 67,-196 70,-199 70,-202 70,-202 70,-208 70,-208 70,-211 67,-214 64,-214"/>
<text text-anchor="start" x="27" y="-202.8" font-family="Helvetica,sans-Serif" font-size="9.00">index.js</text>
</a>
</g>
</g>
<!-- src/index.js&#45;&gt;src/App.js -->
<g id="edge8" class="edge">
<title>src/index.js&#45;&gt;src/App.js</title>
<path fill="none" stroke="#000000" stroke-width="2" stroke-opacity="0.200000" d="M66.91,-195.56C72.15,-193.58 77.73,-191.6 83,-190 93,-186.96 104.02,-184.22 114.14,-181.94"/>
<polygon fill="#000000" fill-opacity="0.200000" stroke="#000000" stroke-width="2" stroke-opacity="0.200000" points="115.34,-183.39 120.76,-180.06 114.45,-179.29 115.34,-183.39"/>
</g>
<!-- src/index.scss -->
<g id="node11" class="node">
<title>src/index.scss</title>
<g id="a_node11"><a xlink:href="src/index.scss" xlink:title="index.scss">
<path fill="#ffffcc" stroke="black" d="M173.5,-214C173.5,-214 126.5,-214 126.5,-214 123.5,-214 120.5,-211 120.5,-208 120.5,-208 120.5,-202 120.5,-202 120.5,-199 123.5,-196 126.5,-196 126.5,-196 173.5,-196 173.5,-196 176.5,-196 179.5,-199 179.5,-202 179.5,-202 179.5,-208 179.5,-208 179.5,-211 176.5,-214 173.5,-214"/>
<text text-anchor="start" x="128.5" y="-202.8" font-family="Helvetica,sans-Serif" font-size="9.00">index.scss</text>
</a>
</g>
</g>
<!-- src/index.js&#45;&gt;src/index.scss -->
<g id="edge9" class="edge">
<title>src/index.js&#45;&gt;src/index.scss</title>
<path fill="none" stroke="#000000" stroke-width="2" stroke-opacity="0.200000" d="M70.5,-205C82.95,-205 98.03,-205 111.62,-205"/>
<polygon fill="#000000" fill-opacity="0.200000" stroke="#000000" stroke-width="2" stroke-opacity="0.200000" points="111.3,-207.1 117.3,-205 111.3,-202.9 111.3,-207.1"/>
</g>
<!-- src/serviceWorkerRegistration.js -->
<g id="node12" class="node">
<title>src/serviceWorkerRegistration.js</title>
<g id="a_node12"><a xlink:href="src/serviceWorkerRegistration.js" xlink:title="serviceWorkerRegistration.js">
<path fill="#ffffcc" stroke="black" d="M211,-244C211,-244 89,-244 89,-244 86,-244 83,-241 83,-238 83,-238 83,-232 83,-232 83,-229 86,-226 89,-226 89,-226 211,-226 211,-226 214,-226 217,-229 217,-232 217,-232 217,-238 217,-238 217,-241 214,-244 211,-244"/>
<text text-anchor="start" x="91" y="-232.8" font-family="Helvetica,sans-Serif" font-size="9.00">serviceWorkerRegistration.js</text>
</a>
</g>
</g>
<!-- src/index.js&#45;&gt;src/serviceWorkerRegistration.js -->
<g id="edge10" class="edge">
<title>src/index.js&#45;&gt;src/serviceWorkerRegistration.js</title>
<path fill="none" stroke="#000000" stroke-width="2" stroke-opacity="0.200000" d="M66.91,-214.44C72.15,-216.42 77.73,-218.4 83,-220 86.77,-221.15 90.68,-222.25 94.64,-223.3"/>
<polygon fill="#000000" fill-opacity="0.200000" stroke="#000000" stroke-width="2" stroke-opacity="0.200000" points="95,-226.07 101.33,-225.52 96.04,-222 95,-226.07"/>
</g>
<!-- src/js/components/Form.js -->
<g id="node13" class="node">
<title>src/js/components/Form.js</title>
<g id="a_node13"><a xlink:href="src/js/components/Form.js" xlink:title="Form.js">
<path fill="#ffffcc" stroke="black" d="M490.5,-184C490.5,-184 448.5,-184 448.5,-184 445.5,-184 442.5,-181 442.5,-178 442.5,-178 442.5,-172 442.5,-172 442.5,-169 445.5,-166 448.5,-166 448.5,-166 490.5,-166 490.5,-166 493.5,-166 496.5,-169 496.5,-172 496.5,-172 496.5,-178 496.5,-178 496.5,-181 493.5,-184 490.5,-184"/>
<text text-anchor="start" x="454" y="-172.8" font-family="Helvetica,sans-Serif" font-size="9.00">Form.js</text>
</a>
</g>
</g>
<!-- src/js/pages/Settings.js&#45;&gt;src/js/components/Form.js -->
<g id="edge15" class="edge">
<title>src/js/pages/Settings.js&#45;&gt;src/js/components/Form.js</title>
<path fill="none" stroke="#000000" stroke-width="2" stroke-opacity="0.200000" d="M411.95,-175C418.83,-175 426.24,-175 433.37,-175"/>
<polygon fill="#000000" fill-opacity="0.200000" stroke="#000000" stroke-width="2" stroke-opacity="0.200000" points="433.17,-177.1 439.17,-175 433.17,-172.9 433.17,-177.1"/>
</g>
</g>
</svg>
