<?xml version="1.0" encoding="UTF-8" standalone="no"?>
<!DOCTYPE svg PUBLIC "-//W3C//DTD SVG 1.1//EN"
 "http://www.w3.org/Graphics/SVG/1.1/DTD/svg11.dtd">
<!-- Generated by graphviz version 8.0.1 (20230327.1645)
 -->
<!-- Title: dependency&#45;cruiser output Pages: 1 -->
<svg width="648pt" height="490pt"
 viewBox="0.00 0.00 648.00 490.00" xmlns="http://www.w3.org/2000/svg" xmlns:xlink="http://www.w3.org/1999/xlink">
<g id="graph0" class="graph" transform="scale(1 1) rotate(0) translate(4 486)">
<title>dependency&#45;cruiser output</title>
<polygon fill="white" stroke="none" points="-4,4 -4,-486 644,-486 644,4 -4,4"/>
<g id="clust1" class="cluster">
<title>cluster_src</title>
<path fill="#ffffff" stroke="black" stroke-width="2" d="M20,-8C20,-8 620,-8 620,-8 626,-8 632,-14 632,-20 632,-20 632,-462 632,-462 632,-468 626,-474 620,-474 620,-474 20,-474 20,-474 14,-474 8,-468 8,-462 8,-462 8,-20 8,-20 8,-14 14,-8 20,-8"/>
<text text-anchor="middle" x="320" y="-462.8" font-family="Helvetica,sans-Serif" font-weight="bold" font-size="9.00">src</text>
</g>
<g id="clust2" class="cluster">
<title>cluster_src/assets</title>
<path fill="#ffffff" stroke="black" stroke-width="2" d="M357,-54C357,-54 421,-54 421,-54 427,-54 433,-60 433,-66 433,-66 433,-128 433,-128 433,-134 427,-140 421,-140 421,-140 357,-140 357,-140 351,-140 345,-134 345,-128 345,-128 345,-66 345,-66 345,-60 351,-54 357,-54"/>
<text text-anchor="middle" x="389" y="-128.8" font-family="Helvetica,sans-Serif" font-weight="bold" font-size="9.00">assets</text>
</g>
<g id="clust3" class="cluster">
<title>cluster_src/assets/images</title>
<path fill="#ffffff" stroke="black" stroke-width="2" d="M365,-62C365,-62 413,-62 413,-62 419,-62 425,-68 425,-74 425,-74 425,-102 425,-102 425,-108 419,-114 413,-114 413,-114 365,-114 365,-114 359,-114 353,-108 353,-102 353,-102 353,-74 353,-74 353,-68 359,-62 365,-62"/>
<text text-anchor="middle" x="389" y="-102.8" font-family="Helvetica,sans-Serif" font-weight="bold" font-size="9.00">images</text>
</g>
<g id="clust4" class="cluster">
<title>cluster_src/js</title>
<path fill="#ffffff" stroke="black" stroke-width="2" d="M269,-148C269,-148 612,-148 612,-148 618,-148 624,-154 624,-160 624,-160 624,-436 624,-436 624,-442 618,-448 612,-448 612,-448 269,-448 269,-448 263,-448 257,-442 257,-436 257,-436 257,-160 257,-160 257,-154 263,-148 269,-148"/>
<text text-anchor="middle" x="440.5" y="-436.8" font-family="Helvetica,sans-Serif" font-weight="bold" font-size="9.00">js</text>
</g>
<g id="clust5" class="cluster">
<title>cluster_src/js/components</title>
<path fill="#ffffff" stroke="black" stroke-width="2" d="M466,-246C466,-246 513,-246 513,-246 519,-246 525,-252 525,-258 525,-258 525,-316 525,-316 525,-322 519,-328 513,-328 513,-328 466,-328 466,-328 460,-328 454,-322 454,-316 454,-316 454,-258 454,-258 454,-252 460,-246 466,-246"/>
<text text-anchor="middle" x="489.5" y="-316.8" font-family="Helvetica,sans-Serif" font-weight="bold" font-size="9.00">components</text>
</g>
<g id="clust6" class="cluster">
<title>cluster_src/js/engine</title>
<path fill="#ffffff" stroke="black" stroke-width="2" d="M453,-156C453,-156 526,-156 526,-156 532,-156 538,-162 538,-168 538,-168 538,-226 538,-226 538,-232 532,-238 526,-238 526,-238 453,-238 453,-238 447,-238 441,-232 441,-226 441,-226 441,-168 441,-168 441,-162 447,-156 453,-156"/>
<text text-anchor="middle" x="489.5" y="-226.8" font-family="Helvetica,sans-Serif" font-weight="bold" font-size="9.00">engine</text>
</g>
<g id="clust7" class="cluster">
<title>cluster_src/js/main</title>
<path fill="#ffffff" stroke="black" stroke-width="2" d="M277,-242C277,-242 325,-242 325,-242 331,-242 337,-248 337,-254 337,-254 337,-342 337,-342 337,-348 331,-354 325,-354 325,-354 277,-354 277,-354 271,-354 265,-348 265,-342 265,-342 265,-254 265,-254 265,-248 271,-242 277,-242"/>
<text text-anchor="middle" x="301" y="-342.8" font-family="Helvetica,sans-Serif" font-weight="bold" font-size="9.00">main</text>
</g>
<g id="clust8" class="cluster">
<title>cluster_src/js/pages</title>
<path fill="#ffffff" stroke="black" stroke-width="2" d="M362.5,-272C362.5,-272 415.5,-272 415.5,-272 421.5,-272 427.5,-278 427.5,-284 427.5,-284 427.5,-372 427.5,-372 427.5,-378 421.5,-384 415.5,-384 415.5,-384 362.5,-384 362.5,-384 356.5,-384 350.5,-378 350.5,-372 350.5,-372 350.5,-284 350.5,-284 350.5,-278 356.5,-272 362.5,-272"/>
<text text-anchor="middle" x="389" y="-372.8" font-family="Helvetica,sans-Serif" font-weight="bold" font-size="9.00">pages</text>
</g>
<g id="clust9" class="cluster">
<title>cluster_src/js/utilities</title>
<path fill="#ffffff" stroke="black" stroke-width="2" d="M558,-280C558,-280 604,-280 604,-280 610,-280 616,-286 616,-292 616,-292 616,-410 616,-410 616,-416 610,-422 604,-422 604,-422 558,-422 558,-422 552,-422 546,-416 546,-410 546,-410 546,-292 546,-292 546,-286 552,-280 558,-280"/>
<text text-anchor="middle" x="581" y="-410.8" font-family="Helvetica,sans-Serif" font-weight="bold" font-size="9.00">utilities</text>
</g>
<!-- src/App.js -->
<g id="node1" class="node">
<title>src/App.js</title>
<g id="a_node1"><a xlink:href="src/App.js" xlink:title="App.js">
<path fill="#ffffcc" stroke="black" d="M203,-84C203,-84 161,-84 161,-84 158,-84 155,-81 155,-78 155,-78 155,-72 155,-72 155,-69 158,-66 161,-66 161,-66 203,-66 203,-66 206,-66 209,-69 209,-72 209,-72 209,-78 209,-78 209,-81 206,-84 203,-84"/>
<text text-anchor="start" x="169" y="-72.8" font-family="Helvetica,sans-Serif" font-size="9.00">App.js</text>
</a>
</g>
</g>
<!-- src/App.scss -->
<g id="node2" class="node">
<title>src/App.scss</title>
<g id="a_node2"><a xlink:href="src/App.scss" xlink:title="App.scss">
<path fill="#ffffcc" stroke="black" d="M322,-34C322,-34 280,-34 280,-34 277,-34 274,-31 274,-28 274,-28 274,-22 274,-22 274,-19 277,-16 280,-16 280,-16 322,-16 322,-16 325,-16 328,-19 328,-22 328,-22 328,-28 328,-28 328,-31 325,-34 322,-34"/>
<text text-anchor="start" x="282.5" y="-22.8" font-family="Helvetica,sans-Serif" font-size="9.00">App.scss</text>
</a>
</g>
</g>
<!-- src/App.js&#45;&gt;src/App.scss -->
<g id="edge1" class="edge">
<title>src/App.js&#45;&gt;src/App.scss</title>
<path fill="none" stroke="#000000" stroke-width="2" stroke-opacity="0.200000" d="M204.67,-65.55C219.4,-59.14 239.36,-50.51 257,-43 260.89,-41.34 264.98,-39.61 269.04,-37.91"/>
<polygon fill="#000000" fill-opacity="0.200000" stroke="#000000" stroke-width="2" stroke-opacity="0.200000" points="270.5,-39.74 275.22,-35.48 268.87,-35.86 270.5,-39.74"/>
</g>
<!-- src/js/components/Screen.js -->
<g id="node3" class="node">
<title>src/js/components/Screen.js</title>
<g id="a_node3"><a xlink:href="src/js/components/Screen.js" xlink:title="Screen.js">
<path fill="#ffffcc" stroke="black" d="M511,-272C511,-272 468,-272 468,-272 465,-272 462,-269 462,-266 462,-266 462,-260 462,-260 462,-257 465,-254 468,-254 468,-254 511,-254 511,-254 514,-254 517,-257 517,-260 517,-260 517,-266 517,-266 517,-269 514,-272 511,-272"/>
<text text-anchor="start" x="470" y="-260.8" font-family="Helvetica,sans-Serif" font-size="9.00">Screen.js</text>
</a>
</g>
</g>
<!-- src/App.js&#45;&gt;src/js/components/Screen.js -->
<g id="edge2" class="edge">
<title>src/App.js&#45;&gt;src/js/components/Screen.js</title>
<path fill="none" stroke="#000000" stroke-width="2" stroke-opacity="0.200000" d="M209.28,-77.74C240.7,-80.03 294.41,-80.75 337,-65 341.17,-63.46 340.78,-60.41 345,-59 382.1,-46.63 404.74,-31.96 433,-59 447.62,-73 429.73,-224.19 441,-241 444.26,-245.87 448.9,-249.68 454.01,-252.66"/>
<polygon fill="#000000" fill-opacity="0.200000" stroke="#000000" stroke-width="2" stroke-opacity="0.200000" points="453.41,-254.69 459.72,-255.45 455.26,-250.92 453.41,-254.69"/>
</g>
<!-- src/js/engine/Configuration.js -->
<g id="node4" class="node">
<title>src/js/engine/Configuration.js</title>
<g id="a_node4"><a xlink:href="src/js/engine/Configuration.js" xlink:title="Configuration.js">
<path fill="#ffffcc" stroke="black" d="M524,-182C524,-182 455,-182 455,-182 452,-182 449,-179 449,-176 449,-176 449,-170 449,-170 449,-167 452,-164 455,-164 455,-164 524,-164 524,-164 527,-164 530,-167 530,-170 530,-170 530,-176 530,-176 530,-179 527,-182 524,-182"/>
<text text-anchor="start" x="457" y="-170.8" font-family="Helvetica,sans-Serif" font-size="9.00">Configuration.js</text>
</a>
</g>
</g>
<!-- src/App.js&#45;&gt;src/js/engine/Configuration.js -->
<g id="edge3" class="edge">
<title>src/App.js&#45;&gt;src/js/engine/Configuration.js</title>
<path fill="none" stroke="#000000" stroke-width="2" stroke-opacity="0.200000" d="M209.33,-68.4C223.44,-64.91 241.14,-60.61 257,-57 292.44,-48.93 307.3,-60.95 337,-40 342.54,-36.09 339.08,-30.31 345,-27 379.14,-7.92 400.8,-4.79 433,-27 475.48,-56.3 485.47,-122.72 487.8,-154.88"/>
<polygon fill="#000000" fill-opacity="0.200000" stroke="#000000" stroke-width="2" stroke-opacity="0.200000" points="485.87,-154.81 488.31,-160.68 490.06,-154.57 485.87,-154.81"/>
</g>
<!-- src/js/engine/Engine.js -->
<g id="node5" class="node">
<title>src/js/engine/Engine.js</title>
<g id="a_node5"><a xlink:href="src/js/engine/Engine.js" xlink:title="Engine.js">
<path fill="#ffffcc" stroke="black" d="M511,-212C511,-212 468,-212 468,-212 465,-212 462,-209 462,-206 462,-206 462,-200 462,-200 462,-197 465,-194 468,-194 468,-194 511,-194 511,-194 514,-194 517,-197 517,-200 517,-200 517,-206 517,-206 517,-209 514,-212 511,-212"/>
<text text-anchor="start" x="470" y="-200.8" font-family="Helvetica,sans-Serif" font-size="9.00">Engine.js</text>
</a>
</g>
</g>
<!-- src/App.js&#45;&gt;src/js/engine/Engine.js -->
<g id="edge4" class="edge">
<title>src/App.js&#45;&gt;src/js/engine/Engine.js</title>
<path fill="none" stroke="#000000" stroke-width="2" stroke-opacity="0.200000" d="M209.27,-73.81C247.52,-71.66 316.26,-66.07 337,-53 342.42,-49.58 339.35,-44.02 345,-41 362.24,-31.77 418.8,-27.55 433,-41 444.88,-52.25 430.98,-175.07 441,-188 444.26,-192.2 448.69,-195.25 453.55,-197.46"/>
<polygon fill="#000000" fill-opacity="0.200000" stroke="#000000" stroke-width="2" stroke-opacity="0.200000" points="453.63,-199.42 459.99,-199.43 455.03,-195.46 453.63,-199.42"/>
</g>
<!-- src/js/main/Control.js -->
<g id="node6" class="node">
<title>src/js/main/Control.js</title>
<g id="a_node6"><a xlink:href="src/js/main/Control.js" xlink:title="Control.js">
<path fill="#ffffcc" stroke="black" d="M323,-298C323,-298 279,-298 279,-298 276,-298 273,-295 273,-292 273,-292 273,-286 273,-286 273,-283 276,-280 279,-280 279,-280 323,-280 323,-280 326,-280 329,-283 329,-286 329,-286 329,-292 329,-292 329,-295 326,-298 323,-298"/>
<text text-anchor="start" x="281" y="-286.8" font-family="Helvetica,sans-Serif" font-size="9.00">Control.js</text>
</a>
</g>
</g>
<!-- src/App.js&#45;&gt;src/js/main/Control.js -->
<g id="edge5" class="edge">
<title>src/App.js&#45;&gt;src/js/main/Control.js</title>
<path fill="none" stroke="#000000" stroke-width="2" stroke-opacity="0.200000" d="M209.44,-73.88C223.38,-74.82 239.51,-78.63 249,-90 262.11,-105.71 244.79,-257.58 257,-274 259.12,-276.85 261.81,-279.15 264.81,-281.03"/>
<polygon fill="#000000" fill-opacity="0.200000" stroke="#000000" stroke-width="2" stroke-opacity="0.200000" points="264.45,-283.14 270.77,-283.84 266.27,-279.35 264.45,-283.14"/>
</g>
<!-- src/js/main/Map.js -->
<g id="node7" class="node">
<title>src/js/main/Map.js</title>
<g id="a_node7"><a xlink:href="src/js/main/Map.js" xlink:title="Map.js">
<path fill="#ffffcc" stroke="black" d="M322,-268C322,-268 280,-268 280,-268 277,-268 274,-265 274,-262 274,-262 274,-256 274,-256 274,-253 277,-250 280,-250 280,-250 322,-250 322,-250 325,-250 328,-253 328,-256 328,-256 328,-262 328,-262 328,-265 325,-268 322,-268"/>
<text text-anchor="start" x="287" y="-256.8" font-family="Helvetica,sans-Serif" font-size="9.00">Map.js</text>
</a>
</g>
</g>
<!-- src/App.js&#45;&gt;src/js/main/Map.js -->
<g id="edge6" class="edge">
<title>src/App.js&#45;&gt;src/js/main/Map.js</title>
<path fill="none" stroke="#000000" stroke-width="2" stroke-opacity="0.200000" d="M209.4,-73.91C223.33,-74.86 239.47,-78.67 249,-90 271.34,-116.57 235.6,-218.67 257,-246 259.33,-248.97 262.31,-251.28 265.62,-253.08"/>
<polygon fill="#000000" fill-opacity="0.200000" stroke="#000000" stroke-width="2" stroke-opacity="0.200000" points="265.42,-255.08 271.77,-255.4 267,-251.19 265.42,-255.08"/>
</g>
<!-- src/js/main/Panel.js -->
<g id="node8" class="node">
<title>src/js/main/Panel.js</title>
<g id="a_node8"><a xlink:href="src/js/main/Panel.js" xlink:title="Panel.js">
<path fill="#ffffcc" stroke="black" d="M322,-328C322,-328 280,-328 280,-328 277,-328 274,-325 274,-322 274,-322 274,-316 274,-316 274,-313 277,-310 280,-310 280,-310 322,-310 322,-310 325,-310 328,-313 328,-316 328,-316 328,-322 328,-322 328,-325 325,-328 322,-328"/>
<text text-anchor="start" x="284" y="-316.8" font-family="Helvetica,sans-Serif" font-size="9.00">Panel.js</text>
</a>
</g>
</g>
<!-- src/App.js&#45;&gt;src/js/main/Panel.js -->
<g id="edge7" class="edge">
<title>src/App.js&#45;&gt;src/js/main/Panel.js</title>
<path fill="none" stroke="#000000" stroke-width="2" stroke-opacity="0.200000" d="M209.46,-73.86C223.41,-74.79 239.55,-78.6 249,-90 264.19,-108.32 242.86,-284.86 257,-304 259.27,-307.08 262.22,-309.53 265.51,-311.48"/>
<polygon fill="#000000" fill-opacity="0.200000" stroke="#000000" stroke-width="2" stroke-opacity="0.200000" points="265.31,-313.6 271.64,-314.18 267.05,-309.78 265.31,-313.6"/>
</g>
<!-- src/js/utilities/Data.js -->
<g id="node15" class="node">
<title>src/js/utilities/Data.js</title>
<g id="a_node15"><a xlink:href="src/js/utilities/Data.js" xlink:title="Data.js">
<path fill="#ffffcc" stroke="black" d="M602,-306C602,-306 560,-306 560,-306 557,-306 554,-303 554,-300 554,-300 554,-294 554,-294 554,-291 557,-288 560,-288 560,-288 602,-288 602,-288 605,-288 608,-291 608,-294 608,-294 608,-300 608,-300 608,-303 605,-306 602,-306"/>
<text text-anchor="start" x="566.5" y="-294.8" font-family="Helvetica,sans-Serif" font-size="9.00">Data.js</text>
</a>
</g>
</g>
<!-- src/js/engine/Configuration.js&#45;&gt;src/js/utilities/Data.js -->
<g id="edge12" class="edge">
<title>src/js/engine/Configuration.js&#45;&gt;src/js/utilities/Data.js</title>
<path fill="none" stroke="#000000" stroke-width="2" stroke-opacity="0.200000" d="M530.42,-182.47C533.16,-184.04 535.73,-185.87 538,-188 563.98,-212.41 574.08,-254.69 577.86,-278.79"/>
<polygon fill="#000000" fill-opacity="0.200000" stroke="#000000" stroke-width="2" stroke-opacity="0.200000" points="576.19,-279.97 579.09,-285.62 580.35,-279.39 576.19,-279.97"/>
</g>
<!-- src/js/utilities/Color.js -->
<g id="node16" class="node">
<title>src/js/utilities/Color.js</title>
<g id="a_node16"><a xlink:href="src/js/utilities/Color.js" xlink:title="Color.js">
<path fill="#ffffcc" stroke="black" d="M602,-336C602,-336 560,-336 560,-336 557,-336 554,-333 554,-330 554,-330 554,-324 554,-324 554,-321 557,-318 560,-318 560,-318 602,-318 602,-318 605,-318 608,-321 608,-324 608,-324 608,-330 608,-330 608,-333 605,-336 602,-336"/>
<text text-anchor="start" x="565" y="-324.8" font-family="Helvetica,sans-Serif" font-size="9.00">Color.js</text>
</a>
</g>
</g>
<!-- src/js/engine/Engine.js&#45;&gt;src/js/utilities/Color.js -->
<g id="edge13" class="edge">
<title>src/js/engine/Engine.js&#45;&gt;src/js/utilities/Color.js</title>
<path fill="none" stroke="#000000" stroke-width="2" stroke-opacity="0.200000" d="M506.98,-212.31C517.7,-219.3 530.96,-229.9 538,-243 552.62,-270.19 527.68,-287.15 546,-312 546.39,-312.53 546.8,-313.03 547.23,-313.52"/>
<polygon fill="#000000" fill-opacity="0.200000" stroke="#000000" stroke-width="2" stroke-opacity="0.200000" points="545.81,-315.74 551.76,-317.96 548.49,-312.51 545.81,-315.74"/>
</g>
<!-- src/js/utilities/Icon.js -->
<g id="node14" class="node">
<title>src/js/utilities/Icon.js</title>
<g id="a_node14"><a xlink:href="src/js/utilities/Icon.js" xlink:title="Icon.js">
<path fill="#ffffcc" stroke="black" d="M602,-366C602,-366 560,-366 560,-366 557,-366 554,-363 554,-360 554,-360 554,-354 554,-354 554,-351 557,-348 560,-348 560,-348 602,-348 602,-348 605,-348 608,-351 608,-354 608,-354 608,-360 608,-360 608,-363 605,-366 602,-366"/>
<text text-anchor="start" x="567.5" y="-354.8" font-family="Helvetica,sans-Serif" font-size="9.00">Icon.js</text>
</a>
</g>
</g>
<!-- src/js/main/Control.js&#45;&gt;src/js/utilities/Icon.js -->
<g id="edge17" class="edge">
<title>src/js/main/Control.js&#45;&gt;src/js/utilities/Icon.js</title>
<path fill="none" stroke="#000000" stroke-width="2" stroke-opacity="0.200000" d="M325.2,-279.65C329.19,-277.88 333.25,-275.96 337,-274 340.72,-272.06 340.97,-270.16 345,-269 382.6,-258.22 403.63,-243.17 433,-269 453.87,-287.35 421.92,-310.81 441,-331 454.87,-345.68 508.34,-352.23 544.77,-355.04"/>
<polygon fill="#000000" fill-opacity="0.200000" stroke="#000000" stroke-width="2" stroke-opacity="0.200000" points="544.5,-357.34 550.63,-355.67 544.8,-353.15 544.5,-357.34"/>
</g>
<!-- src/js/pages/History.js -->
<g id="node17" class="node">
<title>src/js/pages/History.js</title>
<g id="a_node17"><a xlink:href="src/js/pages/History.js" xlink:title="History.js">
<path fill="#ffffcc" stroke="black" d="M410,-358C410,-358 368,-358 368,-358 365,-358 362,-355 362,-352 362,-352 362,-346 362,-346 362,-343 365,-340 368,-340 368,-340 410,-340 410,-340 413,-340 416,-343 416,-346 416,-346 416,-352 416,-352 416,-355 413,-358 410,-358"/>
<text text-anchor="start" x="370" y="-346.8" font-family="Helvetica,sans-Serif" font-size="9.00">History.js</text>
</a>
</g>
</g>
<!-- src/js/main/Control.js&#45;&gt;src/js/pages/History.js -->
<g id="edge14" class="edge">
<title>src/js/main/Control.js&#45;&gt;src/js/pages/History.js</title>
<path fill="none" stroke="#000000" stroke-width="2" stroke-opacity="0.200000" d="M329.31,-297.65C332.18,-299.4 334.84,-301.5 337,-304 346.03,-314.44 335.62,-323.88 345,-334 347.41,-336.6 350.3,-338.75 353.42,-340.52"/>
<polygon fill="#000000" fill-opacity="0.200000" stroke="#000000" stroke-width="2" stroke-opacity="0.200000" points="353.19,-342.64 359.52,-343.22 354.93,-338.82 353.19,-342.64"/>
</g>
<!-- src/js/pages/Location.js -->
<g id="node18" class="node">
<title>src/js/pages/Location.js</title>
<g id="a_node18"><a xlink:href="src/js/pages/Location.js" xlink:title="Location.js">
<path fill="#ffffcc" stroke="black" d="M413.5,-328C413.5,-328 364.5,-328 364.5,-328 361.5,-328 358.5,-325 358.5,-322 358.5,-322 358.5,-316 358.5,-316 358.5,-313 361.5,-310 364.5,-310 364.5,-310 413.5,-310 413.5,-310 416.5,-310 419.5,-313 419.5,-316 419.5,-316 419.5,-322 419.5,-322 419.5,-325 416.5,-328 413.5,-328"/>
<text text-anchor="start" x="366.5" y="-316.8" font-family="Helvetica,sans-Serif" font-size="9.00">Location.js</text>
</a>
</g>
</g>
<!-- src/js/main/Control.js&#45;&gt;src/js/pages/Location.js -->
<g id="edge15" class="edge">
<title>src/js/main/Control.js&#45;&gt;src/js/pages/Location.js</title>
<path fill="none" stroke="#000000" stroke-width="2" stroke-opacity="0.200000" d="M329.21,-298.49C336.66,-301.09 344.83,-303.94 352.66,-306.67"/>
<polygon fill="#000000" fill-opacity="0.200000" stroke="#000000" stroke-width="2" stroke-opacity="0.200000" points="352.61,-309.58 358.97,-309.57 353.99,-305.61 352.61,-309.58"/>
</g>
<!-- src/js/pages/Settings.js -->
<g id="node19" class="node">
<title>src/js/pages/Settings.js</title>
<g id="a_node19"><a xlink:href="src/js/pages/Settings.js" xlink:title="Settings.js">
<path fill="#ffffcc" stroke="black" d="M412.5,-298C412.5,-298 365.5,-298 365.5,-298 362.5,-298 359.5,-295 359.5,-292 359.5,-292 359.5,-286 359.5,-286 359.5,-283 362.5,-280 365.5,-280 365.5,-280 412.5,-280 412.5,-280 415.5,-280 418.5,-283 418.5,-286 418.5,-286 418.5,-292 418.5,-292 418.5,-295 415.5,-298 412.5,-298"/>
<text text-anchor="start" x="367.5" y="-286.8" font-family="Helvetica,sans-Serif" font-size="9.00">Settings.js</text>
</a>
</g>
</g>
<!-- src/js/main/Control.js&#45;&gt;src/js/pages/Settings.js -->
<g id="edge16" class="edge">
<title>src/js/main/Control.js&#45;&gt;src/js/pages/Settings.js</title>
<path fill="none" stroke="#000000" stroke-width="2" stroke-opacity="0.200000" d="M329.21,-289C335.92,-289 343.23,-289 350.34,-289"/>
<polygon fill="#000000" fill-opacity="0.200000" stroke="#000000" stroke-width="2" stroke-opacity="0.200000" points="350.18,-291.1 356.18,-289 350.18,-286.9 350.18,-291.1"/>
</g>
<!-- src/assets/images/cross.png -->
<g id="node9" class="node">
<title>src/assets/images/cross.png</title>
<g id="a_node9"><a xlink:href="src/assets/images/cross.png" xlink:title="cross.png">
<path fill="#ffffcc" stroke="black" d="M411,-88C411,-88 367,-88 367,-88 364,-88 361,-85 361,-82 361,-82 361,-76 361,-76 361,-73 364,-70 367,-70 367,-70 411,-70 411,-70 414,-70 417,-73 417,-76 417,-76 417,-82 417,-82 417,-85 414,-88 411,-88"/>
<text text-anchor="start" x="369" y="-76.8" font-family="Helvetica,sans-Serif" font-size="9.00">cross.png</text>
</a>
</g>
</g>
<!-- src/js/main/Map.js&#45;&gt;src/assets/images/cross.png -->
<g id="edge18" class="edge">
<title>src/js/main/Map.js&#45;&gt;src/assets/images/cross.png</title>
<path fill="none" stroke="#000000" stroke-width="2" stroke-opacity="0.200000" d="M328.15,-252.43C331.44,-250.75 334.51,-248.64 337,-246 376.93,-203.63 385.65,-130.85 387.52,-97.13"/>
<polygon fill="#000000" fill-opacity="0.200000" stroke="#000000" stroke-width="2" stroke-opacity="0.200000" points="389.73,-97.44 387.89,-91.35 385.54,-97.26 389.73,-97.44"/>
</g>
<!-- src/js/main/Panel.js&#45;&gt;src/js/utilities/Icon.js -->
<g id="edge20" class="edge">
<title>src/js/main/Panel.js&#45;&gt;src/js/utilities/Icon.js</title>
<path fill="none" stroke="#000000" stroke-width="2" stroke-opacity="0.200000" d="M303.96,-328.24C308.14,-345.25 319.65,-381.12 345,-396 378.42,-415.61 488.82,-385.62 545.6,-368.13"/>
<polygon fill="#000000" fill-opacity="0.200000" stroke="#000000" stroke-width="2" stroke-opacity="0.200000" points="546.8,-369.33 551.91,-365.55 545.55,-365.32 546.8,-369.33"/>
</g>
<!-- src/js/main/Panel.js&#45;&gt;src/js/utilities/Color.js -->
<g id="edge19" class="edge">
<title>src/js/main/Panel.js&#45;&gt;src/js/utilities/Color.js</title>
<path fill="none" stroke="#000000" stroke-width="2" stroke-opacity="0.200000" d="M304.62,-328.16C309.59,-343.6 322,-374.33 345,-387 379.26,-405.87 394.62,-394.53 433,-387 445,-384.65 510.94,-356.75 550.32,-339.83"/>
<polygon fill="#000000" fill-opacity="0.200000" stroke="#000000" stroke-width="2" stroke-opacity="0.200000" points="551.61,-341.71 556.29,-337.41 549.95,-337.85 551.61,-341.71"/>
</g>
<!-- src/js/utilities/Image.js -->
<g id="node20" class="node">
<title>src/js/utilities/Image.js</title>
<g id="a_node20"><a xlink:href="src/js/utilities/Image.js" xlink:title="Image.js">
<path fill="#ffffcc" stroke="black" d="M602,-396C602,-396 560,-396 560,-396 557,-396 554,-393 554,-390 554,-390 554,-384 554,-384 554,-381 557,-378 560,-378 560,-378 602,-378 602,-378 605,-378 608,-381 608,-384 608,-384 608,-390 608,-390 608,-393 605,-396 602,-396"/>
<text text-anchor="start" x="563.5" y="-384.8" font-family="Helvetica,sans-Serif" font-size="9.00">Image.js</text>
</a>
</g>
</g>
<!-- src/js/main/Panel.js&#45;&gt;src/js/utilities/Image.js -->
<g id="edge21" class="edge">
<title>src/js/main/Panel.js&#45;&gt;src/js/utilities/Image.js</title>
<path fill="none" stroke="#000000" stroke-width="2" stroke-opacity="0.200000" d="M303.57,-328.48C307.17,-346.73 317.88,-386.42 345,-403 409.04,-442.16 502.08,-416.93 549.59,-399.52"/>
<polygon fill="#000000" fill-opacity="0.200000" stroke="#000000" stroke-width="2" stroke-opacity="0.200000" points="551.05,-401.46 555.92,-397.38 549.56,-397.53 551.05,-401.46"/>
</g>
<!-- src/index.js -->
<g id="node10" class="node">
<title>src/index.js</title>
<g id="a_node10"><a xlink:href="src/index.js" xlink:title="index.js">
<path fill="#ffffcc" stroke="black" d="M80,-114C80,-114 38,-114 38,-114 35,-114 32,-111 32,-108 32,-108 32,-102 32,-102 32,-99 35,-96 38,-96 38,-96 80,-96 80,-96 83,-96 86,-99 86,-102 86,-102 86,-108 86,-108 86,-111 83,-114 80,-114"/>
<text text-anchor="start" x="43" y="-102.8" font-family="Helvetica,sans-Serif" font-size="9.00">index.js</text>
</a>
</g>
</g>
<!-- src/index.js&#45;&gt;src/App.js -->
<g id="edge8" class="edge">
<title>src/index.js&#45;&gt;src/App.js</title>
<path fill="none" stroke="#000000" stroke-width="2" stroke-opacity="0.200000" d="M86.24,-97.6C95.32,-95.1 105.59,-92.35 115,-90 125.05,-87.49 136.01,-84.93 146.05,-82.65"/>
<polygon fill="#000000" fill-opacity="0.200000" stroke="#000000" stroke-width="2" stroke-opacity="0.200000" points="147.21,-84.09 152.6,-80.73 146.29,-79.99 147.21,-84.09"/>
</g>
<!-- src/index.scss -->
<g id="node11" class="node">
<title>src/index.scss</title>
<g id="a_node11"><a xlink:href="src/index.scss" xlink:title="index.scss">
<path fill="#ffffcc" stroke="black" d="M205.5,-114C205.5,-114 158.5,-114 158.5,-114 155.5,-114 152.5,-111 152.5,-108 152.5,-108 152.5,-102 152.5,-102 152.5,-99 155.5,-96 158.5,-96 158.5,-96 205.5,-96 205.5,-96 208.5,-96 211.5,-99 211.5,-102 211.5,-102 211.5,-108 211.5,-108 211.5,-111 208.5,-114 205.5,-114"/>
<text text-anchor="start" x="160.5" y="-102.8" font-family="Helvetica,sans-Serif" font-size="9.00">index.scss</text>
</a>
</g>
</g>
<!-- src/index.js&#45;&gt;src/index.scss -->
<g id="edge9" class="edge">
<title>src/index.js&#45;&gt;src/index.scss</title>
<path fill="none" stroke="#000000" stroke-width="2" stroke-opacity="0.200000" d="M86.26,-105C102.98,-105 124.91,-105 143.46,-105"/>
<polygon fill="#000000" fill-opacity="0.200000" stroke="#000000" stroke-width="2" stroke-opacity="0.200000" points="143.26,-107.1 149.26,-105 143.26,-102.9 143.26,-107.1"/>
</g>
<!-- src/serviceWorkerRegistration.js -->
<g id="node12" class="node">
<title>src/serviceWorkerRegistration.js</title>
<g id="a_node12"><a xlink:href="src/serviceWorkerRegistration.js" xlink:title="serviceWorkerRegistration.js">
<path fill="#ffffcc" stroke="black" d="M243,-144C243,-144 121,-144 121,-144 118,-144 115,-141 115,-138 115,-138 115,-132 115,-132 115,-129 118,-126 121,-126 121,-126 243,-126 243,-126 246,-126 249,-129 249,-132 249,-132 249,-138 249,-138 249,-141 246,-144 243,-144"/>
<text text-anchor="start" x="123" y="-132.8" font-family="Helvetica,sans-Serif" font-size="9.00">serviceWorkerRegistration.js</text>
</a>
</g>
</g>
<!-- src/index.js&#45;&gt;src/serviceWorkerRegistration.js -->
<g id="edge10" class="edge">
<title>src/index.js&#45;&gt;src/serviceWorkerRegistration.js</title>
<path fill="none" stroke="#000000" stroke-width="2" stroke-opacity="0.200000" d="M86.24,-112.4C95.32,-114.9 105.59,-117.65 115,-120 119.63,-121.16 124.45,-122.32 129.29,-123.47"/>
<polygon fill="#000000" fill-opacity="0.200000" stroke="#000000" stroke-width="2" stroke-opacity="0.200000" points="129.66,-126.18 135.98,-125.5 130.61,-122.09 129.66,-126.18"/>
</g>
<!-- src/js/components/Form.js -->
<g id="node13" class="node">
<title>src/js/components/Form.js</title>
<g id="a_node13"><a xlink:href="src/js/components/Form.js" xlink:title="Form.js">
<path fill="#ffffcc" stroke="black" d="M510.5,-302C510.5,-302 468.5,-302 468.5,-302 465.5,-302 462.5,-299 462.5,-296 462.5,-296 462.5,-290 462.5,-290 462.5,-287 465.5,-284 468.5,-284 468.5,-284 510.5,-284 510.5,-284 513.5,-284 516.5,-287 516.5,-290 516.5,-290 516.5,-296 516.5,-296 516.5,-299 513.5,-302 510.5,-302"/>
<text text-anchor="start" x="474" y="-290.8" font-family="Helvetica,sans-Serif" font-size="9.00">Form.js</text>
</a>
</g>
</g>
<!-- src/js/components/Form.js&#45;&gt;src/js/utilities/Icon.js -->
<g id="edge11" class="edge">
<title>src/js/components/Form.js&#45;&gt;src/js/utilities/Icon.js</title>
<path fill="none" stroke="#000000" stroke-width="2" stroke-opacity="0.200000" d="M499.22,-302.26C509.59,-312.89 527.81,-330.36 546,-342 546.79,-342.5 547.6,-343 548.42,-343.49"/>
<polygon fill="#000000" fill-opacity="0.200000" stroke="#000000" stroke-width="2" stroke-opacity="0.200000" points="547.82,-345.61 554.1,-346.58 549.79,-341.91 547.82,-345.61"/>
</g>
<!-- src/js/pages/History.js&#45;&gt;src/js/utilities/Icon.js -->
<g id="edge22" class="edge">
<title>src/js/pages/History.js&#45;&gt;src/js/utilities/Icon.js</title>
<path fill="none" stroke="#000000" stroke-width="2" stroke-opacity="0.200000" d="M408.87,-358.35C418.28,-362.5 429.97,-366.92 441,-369 483.36,-377.01 495.31,-374.98 538,-369 540.39,-368.66 542.84,-368.23 545.3,-367.72"/>
<polygon fill="#000000" fill-opacity="0.200000" stroke="#000000" stroke-width="2" stroke-opacity="0.200000" points="546.23,-369.18 551.58,-365.75 545.26,-365.09 546.23,-369.18"/>
</g>
<!-- src/js/pages/Location.js&#45;&gt;src/js/utilities/Icon.js -->
<g id="edge24" class="edge">
<title>src/js/pages/Location.js&#45;&gt;src/js/utilities/Icon.js</title>
<path fill="none" stroke="#000000" stroke-width="2" stroke-opacity="0.200000" d="M419.72,-325.51C424.59,-327.6 429.26,-330.36 433,-334 440.16,-340.96 432.82,-349.27 441,-355 457.18,-366.32 509.46,-363.99 545.09,-360.83"/>
<polygon fill="#000000" fill-opacity="0.200000" stroke="#000000" stroke-width="2" stroke-opacity="0.200000" points="544.98,-362.67 550.76,-360.02 544.59,-358.49 544.98,-362.67"/>
</g>
<!-- src/js/pages/Location.js&#45;&gt;src/js/utilities/Data.js -->
<g id="edge23" class="edge">
<title>src/js/pages/Location.js&#45;&gt;src/js/utilities/Data.js</title>
<path fill="none" stroke="#000000" stroke-width="2" stroke-opacity="0.200000" d="M420,-327.27C426.85,-328.82 434.13,-330.2 441,-331 483.82,-335.97 502.08,-354.85 538,-331 545.63,-325.93 539.58,-318.53 546,-312 546.28,-311.71 546.57,-311.43 546.87,-311.15"/>
<polygon fill="#000000" fill-opacity="0.200000" stroke="#000000" stroke-width="2" stroke-opacity="0.200000" points="548.2,-312.3 551.78,-307.04 545.71,-308.92 548.2,-312.3"/>
</g>
<!-- src/js/pages/Settings.js&#45;&gt;src/js/components/Form.js -->
<g id="edge25" class="edge">
<title>src/js/pages/Settings.js&#45;&gt;src/js/components/Form.js</title>
<path fill="none" stroke="#000000" stroke-width="2" stroke-opacity="0.200000" d="M418.76,-290.17C429.6,-290.61 442.05,-291.11 453.41,-291.58"/>
<polygon fill="#000000" fill-opacity="0.200000" stroke="#000000" stroke-width="2" stroke-opacity="0.200000" points="453.15,-293.79 459.23,-291.93 453.32,-289.59 453.15,-293.79"/>
</g>
<!-- src/service&#45;worker.js -->
<g id="node21" class="node">
<title>src/service&#45;worker.js</title>
<g id="a_node21"><a xlink:href="src/service-worker.js" xlink:title="service&#45;worker.js">
<path fill="#ccffcc" stroke="black" d="M96,-59C96,-59 22,-59 22,-59 19,-59 16,-56 16,-53 16,-53 16,-47 16,-47 16,-44 19,-41 22,-41 22,-41 96,-41 96,-41 99,-41 102,-44 102,-47 102,-47 102,-53 102,-53 102,-56 99,-59 96,-59"/>
<text text-anchor="start" x="24" y="-47.8" font-family="Helvetica,sans-Serif" font-size="9.00">service&#45;worker.js</text>
</a>
</g>
</g>
</g>
</svg>
