<?xml version="1.0" encoding="UTF-8" standalone="no"?>
<!DOCTYPE svg PUBLIC "-//W3C//DTD SVG 1.1//EN"
 "http://www.w3.org/Graphics/SVG/1.1/DTD/svg11.dtd">
<!-- Generated by graphviz version 8.0.1 (20230327.1645)
 -->
<!-- Title: dependency&#45;cruiser output Pages: 1 -->
<svg width="526pt" height="326pt"
 viewBox="0.00 0.00 526.00 326.00" xmlns="http://www.w3.org/2000/svg" xmlns:xlink="http://www.w3.org/1999/xlink">
<g id="graph0" class="graph" transform="scale(1 1) rotate(0) translate(4 322)">
<title>dependency&#45;cruiser output</title>
<polygon fill="white" stroke="none" points="-4,4 -4,-322 522,-322 522,4 -4,4"/>
<g id="clust1" class="cluster">
<title>cluster_src</title>
<path fill="#ffffff" stroke="black" stroke-width="2" d="M20,-8C20,-8 498,-8 498,-8 504,-8 510,-14 510,-20 510,-20 510,-298 510,-298 510,-304 504,-310 498,-310 498,-310 20,-310 20,-310 14,-310 8,-304 8,-298 8,-298 8,-20 8,-20 8,-14 14,-8 20,-8"/>
<text text-anchor="middle" x="259" y="-298.8" font-family="Helvetica,sans-Serif" font-weight="bold" font-size="9.00">src</text>
</g>
<g id="clust2" class="cluster">
<title>cluster_src/js</title>
<path fill="#ffffff" stroke="black" stroke-width="2" d="M237,-48C237,-48 490,-48 490,-48 496,-48 502,-54 502,-60 502,-60 502,-272 502,-272 502,-278 496,-284 490,-284 490,-284 237,-284 237,-284 231,-284 225,-278 225,-272 225,-272 225,-60 225,-60 225,-54 231,-48 237,-48"/>
<text text-anchor="middle" x="363.5" y="-272.8" font-family="Helvetica,sans-Serif" font-weight="bold" font-size="9.00">js</text>
</g>
<g id="clust3" class="cluster">
<title>cluster_src/js/components</title>
<path fill="#ffffff" stroke="black" stroke-width="2" d="M435,-56C435,-56 482,-56 482,-56 488,-56 494,-62 494,-68 494,-68 494,-126 494,-126 494,-132 488,-138 482,-138 482,-138 435,-138 435,-138 429,-138 423,-132 423,-126 423,-126 423,-68 423,-68 423,-62 429,-56 435,-56"/>
<text text-anchor="middle" x="458.5" y="-126.8" font-family="Helvetica,sans-Serif" font-weight="bold" font-size="9.00">components</text>
</g>
<g id="clust4" class="cluster">
<title>cluster_src/js/engine</title>
<path fill="#ffffff" stroke="black" stroke-width="2" d="M245,-176C245,-176 318,-176 318,-176 324,-176 330,-182 330,-188 330,-188 330,-246 330,-246 330,-252 324,-258 318,-258 318,-258 245,-258 245,-258 239,-258 233,-252 233,-246 233,-246 233,-188 233,-188 233,-182 239,-176 245,-176"/>
<text text-anchor="middle" x="281.5" y="-246.8" font-family="Helvetica,sans-Serif" font-weight="bold" font-size="9.00">engine</text>
</g>
<g id="clust5" class="cluster">
<title>cluster_src/js/main</title>
<path fill="#ffffff" stroke="black" stroke-width="2" d="M257.5,-56C257.5,-56 305.5,-56 305.5,-56 311.5,-56 317.5,-62 317.5,-68 317.5,-68 317.5,-156 317.5,-156 317.5,-162 311.5,-168 305.5,-168 305.5,-168 257.5,-168 257.5,-168 251.5,-168 245.5,-162 245.5,-156 245.5,-156 245.5,-68 245.5,-68 245.5,-62 251.5,-56 257.5,-56"/>
<text text-anchor="middle" x="281.5" y="-156.8" font-family="Helvetica,sans-Serif" font-weight="bold" font-size="9.00">main</text>
</g>
<g id="clust6" class="cluster">
<title>cluster_src/js/pages</title>
<path fill="#ffffff" stroke="black" stroke-width="2" d="M350,-86C350,-86 403,-86 403,-86 409,-86 415,-92 415,-98 415,-98 415,-186 415,-186 415,-192 409,-198 403,-198 403,-198 350,-198 350,-198 344,-198 338,-192 338,-186 338,-186 338,-98 338,-98 338,-92 344,-86 350,-86"/>
<text text-anchor="middle" x="376.5" y="-186.8" font-family="Helvetica,sans-Serif" font-weight="bold" font-size="9.00">pages</text>
</g>
<!-- src/App.js -->
<g id="node1" class="node">
<title>src/App.js</title>
<g id="a_node1"><a xlink:href="src/App.js" xlink:title="App.js">
<path fill="#ffffcc" stroke="black" d="M171,-112C171,-112 129,-112 129,-112 126,-112 123,-109 123,-106 123,-106 123,-100 123,-100 123,-97 126,-94 129,-94 129,-94 171,-94 171,-94 174,-94 177,-97 177,-100 177,-100 177,-106 177,-106 177,-109 174,-112 171,-112"/>
<text text-anchor="start" x="137" y="-100.8" font-family="Helvetica,sans-Serif" font-size="9.00">App.js</text>
</a>
</g>
</g>
<!-- src/App.scss -->
<g id="node2" class="node">
<title>src/App.scss</title>
<g id="a_node2"><a xlink:href="src/App.scss" xlink:title="App.scss">
<path fill="#ffffcc" stroke="black" d="M302.5,-34C302.5,-34 260.5,-34 260.5,-34 257.5,-34 254.5,-31 254.5,-28 254.5,-28 254.5,-22 254.5,-22 254.5,-19 257.5,-16 260.5,-16 260.5,-16 302.5,-16 302.5,-16 305.5,-16 308.5,-19 308.5,-22 308.5,-22 308.5,-28 308.5,-28 308.5,-31 305.5,-34 302.5,-34"/>
<text text-anchor="start" x="263" y="-22.8" font-family="Helvetica,sans-Serif" font-size="9.00">App.scss</text>
</a>
</g>
</g>
<!-- src/App.js&#45;&gt;src/App.scss -->
<g id="edge1" class="edge">
<title>src/App.js&#45;&gt;src/App.scss</title>
<path fill="none" stroke="#000000" stroke-width="2" stroke-opacity="0.200000" d="M160.22,-93.6C173.46,-80.57 199.13,-57.05 225,-43 231.53,-39.46 238.87,-36.47 246.02,-34"/>
<polygon fill="#000000" fill-opacity="0.200000" stroke="#000000" stroke-width="2" stroke-opacity="0.200000" points="247.2,-35.19 252.27,-31.35 245.91,-31.19 247.2,-35.19"/>
</g>
<!-- src/js/components/Screen.js -->
<g id="node3" class="node">
<title>src/js/components/Screen.js</title>
<g id="a_node3"><a xlink:href="src/js/components/Screen.js" xlink:title="Screen.js">
<path fill="#ffffcc" stroke="black" d="M480,-82C480,-82 437,-82 437,-82 434,-82 431,-79 431,-76 431,-76 431,-70 431,-70 431,-67 434,-64 437,-64 437,-64 480,-64 480,-64 483,-64 486,-67 486,-70 486,-70 486,-76 486,-76 486,-79 483,-82 480,-82"/>
<text text-anchor="start" x="439" y="-70.8" font-family="Helvetica,sans-Serif" font-size="9.00">Screen.js</text>
</a>
</g>
</g>
<!-- src/App.js&#45;&gt;src/js/components/Screen.js -->
<g id="edge2" class="edge">
<title>src/App.js&#45;&gt;src/js/components/Screen.js</title>
<path fill="none" stroke="#000000" stroke-width="2" stroke-opacity="0.200000" d="M160.52,-93.74C173.72,-81.63 198.91,-60.99 225,-53 292.51,-32.33 375.85,-49.07 422.18,-61.87"/>
<polygon fill="#000000" fill-opacity="0.200000" stroke="#000000" stroke-width="2" stroke-opacity="0.200000" points="422.32,-64.66 428.66,-64.28 423.47,-60.62 422.32,-64.66"/>
</g>
<!-- src/js/engine/Configuration.js -->
<g id="node4" class="node">
<title>src/js/engine/Configuration.js</title>
<g id="a_node4"><a xlink:href="src/js/engine/Configuration.js" xlink:title="Configuration.js">
<path fill="#ffffcc" stroke="black" d="M316,-232C316,-232 247,-232 247,-232 244,-232 241,-229 241,-226 241,-226 241,-220 241,-220 241,-217 244,-214 247,-214 247,-214 316,-214 316,-214 319,-214 322,-217 322,-220 322,-220 322,-226 322,-226 322,-229 319,-232 316,-232"/>
<text text-anchor="start" x="249" y="-220.8" font-family="Helvetica,sans-Serif" font-size="9.00">Configuration.js</text>
</a>
</g>
</g>
<!-- src/App.js&#45;&gt;src/js/engine/Configuration.js -->
<g id="edge3" class="edge">
<title>src/App.js&#45;&gt;src/js/engine/Configuration.js</title>
<path fill="none" stroke="#000000" stroke-width="2" stroke-opacity="0.200000" d="M177.24,-102.05C191.12,-103.04 207.26,-106.85 217,-118 230.21,-133.12 212.1,-192.61 225,-208 227.18,-210.6 229.76,-212.77 232.6,-214.59"/>
<polygon fill="#000000" fill-opacity="0.200000" stroke="#000000" stroke-width="2" stroke-opacity="0.200000" points="232.29,-216.79 238.6,-217.6 234.18,-213.04 232.29,-216.79"/>
</g>
<!-- src/js/engine/Engine.js -->
<g id="node5" class="node">
<title>src/js/engine/Engine.js</title>
<g id="a_node5"><a xlink:href="src/js/engine/Engine.js" xlink:title="Engine.js">
<path fill="#ffffcc" stroke="black" d="M303,-202C303,-202 260,-202 260,-202 257,-202 254,-199 254,-196 254,-196 254,-190 254,-190 254,-187 257,-184 260,-184 260,-184 303,-184 303,-184 306,-184 309,-187 309,-190 309,-190 309,-196 309,-196 309,-199 306,-202 303,-202"/>
<text text-anchor="start" x="262" y="-190.8" font-family="Helvetica,sans-Serif" font-size="9.00">Engine.js</text>
</a>
</g>
</g>
<!-- src/App.js&#45;&gt;src/js/engine/Engine.js -->
<g id="edge4" class="edge">
<title>src/App.js&#45;&gt;src/js/engine/Engine.js</title>
<path fill="none" stroke="#000000" stroke-width="2" stroke-opacity="0.200000" d="M177.31,-102.31C191.03,-103.41 207,-107.24 217,-118 233.21,-135.45 210.18,-152.35 225,-171 230.16,-177.49 237.52,-182.08 245.2,-185.31"/>
<polygon fill="#000000" fill-opacity="0.200000" stroke="#000000" stroke-width="2" stroke-opacity="0.200000" points="245.21,-187.27 251.57,-187.32 246.63,-183.31 245.21,-187.27"/>
</g>
<!-- src/js/main/Control.js -->
<g id="node6" class="node">
<title>src/js/main/Control.js</title>
<g id="a_node6"><a xlink:href="src/js/main/Control.js" xlink:title="Control.js">
<path fill="#ffffcc" stroke="black" d="M303.5,-142C303.5,-142 259.5,-142 259.5,-142 256.5,-142 253.5,-139 253.5,-136 253.5,-136 253.5,-130 253.5,-130 253.5,-127 256.5,-124 259.5,-124 259.5,-124 303.5,-124 303.5,-124 306.5,-124 309.5,-127 309.5,-130 309.5,-130 309.5,-136 309.5,-136 309.5,-139 306.5,-142 303.5,-142"/>
<text text-anchor="start" x="261.5" y="-130.8" font-family="Helvetica,sans-Serif" font-size="9.00">Control.js</text>
</a>
</g>
</g>
<!-- src/App.js&#45;&gt;src/js/main/Control.js -->
<g id="edge5" class="edge">
<title>src/App.js&#45;&gt;src/js/main/Control.js</title>
<path fill="none" stroke="#000000" stroke-width="2" stroke-opacity="0.200000" d="M177.35,-108.93C189.43,-111.67 203.95,-114.98 217,-118 225.86,-120.05 235.4,-122.29 244.33,-124.4"/>
<polygon fill="#000000" fill-opacity="0.200000" stroke="#000000" stroke-width="2" stroke-opacity="0.200000" points="244.68,-127.11 251.01,-126.45 245.65,-123.03 244.68,-127.11"/>
</g>
<!-- src/js/main/Map.js -->
<g id="node7" class="node">
<title>src/js/main/Map.js</title>
<g id="a_node7"><a xlink:href="src/js/main/Map.js" xlink:title="Map.js">
<path fill="#ffffcc" stroke="black" d="M302.5,-112C302.5,-112 260.5,-112 260.5,-112 257.5,-112 254.5,-109 254.5,-106 254.5,-106 254.5,-100 254.5,-100 254.5,-97 257.5,-94 260.5,-94 260.5,-94 302.5,-94 302.5,-94 305.5,-94 308.5,-97 308.5,-100 308.5,-100 308.5,-106 308.5,-106 308.5,-109 305.5,-112 302.5,-112"/>
<text text-anchor="start" x="267.5" y="-100.8" font-family="Helvetica,sans-Serif" font-size="9.00">Map.js</text>
</a>
</g>
</g>
<!-- src/App.js&#45;&gt;src/js/main/Map.js -->
<g id="edge6" class="edge">
<title>src/App.js&#45;&gt;src/js/main/Map.js</title>
<path fill="none" stroke="#000000" stroke-width="2" stroke-opacity="0.200000" d="M177.21,-103C196.87,-103 223.98,-103 245.49,-103"/>
<polygon fill="#000000" fill-opacity="0.200000" stroke="#000000" stroke-width="2" stroke-opacity="0.200000" points="245.33,-105.1 251.33,-103 245.33,-100.9 245.33,-105.1"/>
</g>
<!-- src/js/main/Panel.js -->
<g id="node8" class="node">
<title>src/js/main/Panel.js</title>
<g id="a_node8"><a xlink:href="src/js/main/Panel.js" xlink:title="Panel.js">
<path fill="#ffffcc" stroke="black" d="M302.5,-82C302.5,-82 260.5,-82 260.5,-82 257.5,-82 254.5,-79 254.5,-76 254.5,-76 254.5,-70 254.5,-70 254.5,-67 257.5,-64 260.5,-64 260.5,-64 302.5,-64 302.5,-64 305.5,-64 308.5,-67 308.5,-70 308.5,-70 308.5,-76 308.5,-76 308.5,-79 305.5,-82 302.5,-82"/>
<text text-anchor="start" x="264.5" y="-70.8" font-family="Helvetica,sans-Serif" font-size="9.00">Panel.js</text>
</a>
</g>
</g>
<!-- src/App.js&#45;&gt;src/js/main/Panel.js -->
<g id="edge7" class="edge">
<title>src/App.js&#45;&gt;src/js/main/Panel.js</title>
<path fill="none" stroke="#000000" stroke-width="2" stroke-opacity="0.200000" d="M177.21,-96.93C196.95,-92.35 224.22,-86.04 245.78,-81.04"/>
<polygon fill="#000000" fill-opacity="0.200000" stroke="#000000" stroke-width="2" stroke-opacity="0.200000" points="246.96,-82.46 252.33,-79.06 246.01,-78.37 246.96,-82.46"/>
</g>
<!-- src/js/pages/History.js -->
<g id="node13" class="node">
<title>src/js/pages/History.js</title>
<g id="a_node13"><a xlink:href="src/js/pages/History.js" xlink:title="History.js">
<path fill="#ffffcc" stroke="black" d="M397.5,-172C397.5,-172 355.5,-172 355.5,-172 352.5,-172 349.5,-169 349.5,-166 349.5,-166 349.5,-160 349.5,-160 349.5,-157 352.5,-154 355.5,-154 355.5,-154 397.5,-154 397.5,-154 400.5,-154 403.5,-157 403.5,-160 403.5,-160 403.5,-166 403.5,-166 403.5,-169 400.5,-172 397.5,-172"/>
<text text-anchor="start" x="357.5" y="-160.8" font-family="Helvetica,sans-Serif" font-size="9.00">History.js</text>
</a>
</g>
</g>
<!-- src/js/main/Control.js&#45;&gt;src/js/pages/History.js -->
<g id="edge11" class="edge">
<title>src/js/main/Control.js&#45;&gt;src/js/pages/History.js</title>
<path fill="none" stroke="#000000" stroke-width="2" stroke-opacity="0.200000" d="M309.9,-141.84C319.61,-144.97 330.67,-148.54 340.9,-151.84"/>
<polygon fill="#000000" fill-opacity="0.200000" stroke="#000000" stroke-width="2" stroke-opacity="0.200000" points="340.9,-154.69 347.25,-154.53 342.19,-150.69 340.9,-154.69"/>
</g>
<!-- src/js/pages/Location.js -->
<g id="node14" class="node">
<title>src/js/pages/Location.js</title>
<g id="a_node14"><a xlink:href="src/js/pages/Location.js" xlink:title="Location.js">
<path fill="#ffffcc" stroke="black" d="M401,-142C401,-142 352,-142 352,-142 349,-142 346,-139 346,-136 346,-136 346,-130 346,-130 346,-127 349,-124 352,-124 352,-124 401,-124 401,-124 404,-124 407,-127 407,-130 407,-130 407,-136 407,-136 407,-139 404,-142 401,-142"/>
<text text-anchor="start" x="354" y="-130.8" font-family="Helvetica,sans-Serif" font-size="9.00">Location.js</text>
</a>
</g>
</g>
<!-- src/js/main/Control.js&#45;&gt;src/js/pages/Location.js -->
<g id="edge12" class="edge">
<title>src/js/main/Control.js&#45;&gt;src/js/pages/Location.js</title>
<path fill="none" stroke="#000000" stroke-width="2" stroke-opacity="0.200000" d="M309.9,-133C318.34,-133 327.79,-133 336.84,-133"/>
<polygon fill="#000000" fill-opacity="0.200000" stroke="#000000" stroke-width="2" stroke-opacity="0.200000" points="336.7,-135.1 342.7,-133 336.7,-130.9 336.7,-135.1"/>
</g>
<!-- src/js/pages/Settings.js -->
<g id="node15" class="node">
<title>src/js/pages/Settings.js</title>
<g id="a_node15"><a xlink:href="src/js/pages/Settings.js" xlink:title="Settings.js">
<path fill="#ffffcc" stroke="black" d="M400,-112C400,-112 353,-112 353,-112 350,-112 347,-109 347,-106 347,-106 347,-100 347,-100 347,-97 350,-94 353,-94 353,-94 400,-94 400,-94 403,-94 406,-97 406,-100 406,-100 406,-106 406,-106 406,-109 403,-112 400,-112"/>
<text text-anchor="start" x="355" y="-100.8" font-family="Helvetica,sans-Serif" font-size="9.00">Settings.js</text>
</a>
</g>
</g>
<!-- src/js/main/Control.js&#45;&gt;src/js/pages/Settings.js -->
<g id="edge13" class="edge">
<title>src/js/main/Control.js&#45;&gt;src/js/pages/Settings.js</title>
<path fill="none" stroke="#000000" stroke-width="2" stroke-opacity="0.200000" d="M309.9,-124.41C316.49,-122.33 323.5,-120.1 330,-118 332.86,-117.08 335.81,-116.12 338.78,-115.15"/>
<polygon fill="#000000" fill-opacity="0.200000" stroke="#000000" stroke-width="2" stroke-opacity="0.200000" points="340.07,-116.28 345.12,-112.42 338.76,-112.29 340.07,-116.28"/>
</g>
<!-- src/index.js -->
<g id="node9" class="node">
<title>src/index.js</title>
<g id="a_node9"><a xlink:href="src/index.js" xlink:title="index.js">
<path fill="#ffffcc" stroke="black" d="M64,-142C64,-142 22,-142 22,-142 19,-142 16,-139 16,-136 16,-136 16,-130 16,-130 16,-127 19,-124 22,-124 22,-124 64,-124 64,-124 67,-124 70,-127 70,-130 70,-130 70,-136 70,-136 70,-139 67,-142 64,-142"/>
<text text-anchor="start" x="27" y="-130.8" font-family="Helvetica,sans-Serif" font-size="9.00">index.js</text>
</a>
</g>
</g>
<!-- src/index.js&#45;&gt;src/App.js -->
<g id="edge8" class="edge">
<title>src/index.js&#45;&gt;src/App.js</title>
<path fill="none" stroke="#000000" stroke-width="2" stroke-opacity="0.200000" d="M66.91,-123.56C72.15,-121.58 77.73,-119.6 83,-118 93,-114.96 104.02,-112.22 114.14,-109.94"/>
<polygon fill="#000000" fill-opacity="0.200000" stroke="#000000" stroke-width="2" stroke-opacity="0.200000" points="115.34,-111.39 120.76,-108.06 114.45,-107.29 115.34,-111.39"/>
</g>
<!-- src/index.scss -->
<g id="node10" class="node">
<title>src/index.scss</title>
<g id="a_node10"><a xlink:href="src/index.scss" xlink:title="index.scss">
<path fill="#ffffcc" stroke="black" d="M173.5,-142C173.5,-142 126.5,-142 126.5,-142 123.5,-142 120.5,-139 120.5,-136 120.5,-136 120.5,-130 120.5,-130 120.5,-127 123.5,-124 126.5,-124 126.5,-124 173.5,-124 173.5,-124 176.5,-124 179.5,-127 179.5,-130 179.5,-130 179.5,-136 179.5,-136 179.5,-139 176.5,-142 173.5,-142"/>
<text text-anchor="start" x="128.5" y="-130.8" font-family="Helvetica,sans-Serif" font-size="9.00">index.scss</text>
</a>
</g>
</g>
<!-- src/index.js&#45;&gt;src/index.scss -->
<g id="edge9" class="edge">
<title>src/index.js&#45;&gt;src/index.scss</title>
<path fill="none" stroke="#000000" stroke-width="2" stroke-opacity="0.200000" d="M70.5,-133C82.95,-133 98.03,-133 111.62,-133"/>
<polygon fill="#000000" fill-opacity="0.200000" stroke="#000000" stroke-width="2" stroke-opacity="0.200000" points="111.3,-135.1 117.3,-133 111.3,-130.9 111.3,-135.1"/>
</g>
<!-- src/serviceWorkerRegistration.js -->
<g id="node11" class="node">
<title>src/serviceWorkerRegistration.js</title>
<g id="a_node11"><a xlink:href="src/serviceWorkerRegistration.js" xlink:title="serviceWorkerRegistration.js">
<path fill="#ffffcc" stroke="black" d="M211,-172C211,-172 89,-172 89,-172 86,-172 83,-169 83,-166 83,-166 83,-160 83,-160 83,-157 86,-154 89,-154 89,-154 211,-154 211,-154 214,-154 217,-157 217,-160 217,-160 217,-166 217,-166 217,-169 214,-172 211,-172"/>
<text text-anchor="start" x="91" y="-160.8" font-family="Helvetica,sans-Serif" font-size="9.00">serviceWorkerRegistration.js</text>
</a>
</g>
</g>
<!-- src/index.js&#45;&gt;src/serviceWorkerRegistration.js -->
<g id="edge10" class="edge">
<title>src/index.js&#45;&gt;src/serviceWorkerRegistration.js</title>
<path fill="none" stroke="#000000" stroke-width="2" stroke-opacity="0.200000" d="M66.91,-142.44C72.15,-144.42 77.73,-146.4 83,-148 86.77,-149.15 90.68,-150.25 94.64,-151.3"/>
<polygon fill="#000000" fill-opacity="0.200000" stroke="#000000" stroke-width="2" stroke-opacity="0.200000" points="95,-154.07 101.33,-153.52 96.04,-150 95,-154.07"/>
</g>
<!-- src/js/components/Form.js -->
<g id="node12" class="node">
<title>src/js/components/Form.js</title>
<g id="a_node12"><a xlink:href="src/js/components/Form.js" xlink:title="Form.js">
<path fill="#ffffcc" stroke="black" d="M479.5,-112C479.5,-112 437.5,-112 437.5,-112 434.5,-112 431.5,-109 431.5,-106 431.5,-106 431.5,-100 431.5,-100 431.5,-97 434.5,-94 437.5,-94 437.5,-94 479.5,-94 479.5,-94 482.5,-94 485.5,-97 485.5,-100 485.5,-100 485.5,-106 485.5,-106 485.5,-109 482.5,-112 479.5,-112"/>
<text text-anchor="start" x="443" y="-100.8" font-family="Helvetica,sans-Serif" font-size="9.00">Form.js</text>
</a>
</g>
</g>
<!-- src/js/pages/Settings.js&#45;&gt;src/js/components/Form.js -->
<g id="edge14" class="edge">
<title>src/js/pages/Settings.js&#45;&gt;src/js/components/Form.js</title>
<path fill="none" stroke="#000000" stroke-width="2" stroke-opacity="0.200000" d="M406.38,-103C411.54,-103 416.97,-103 422.29,-103"/>
<polygon fill="#000000" fill-opacity="0.200000" stroke="#000000" stroke-width="2" stroke-opacity="0.200000" points="422.06,-105.1 428.06,-103 422.06,-100.9 422.06,-105.1"/>
</g>
</g>
</svg>
