<?xml version="1.0" encoding="UTF-8" standalone="no"?>
<!DOCTYPE svg PUBLIC "-//W3C//DTD SVG 1.1//EN"
 "http://www.w3.org/Graphics/SVG/1.1/DTD/svg11.dtd">
<!-- Generated by graphviz version 8.0.1 (20230327.1645)
 -->
<!-- Title: dependency&#45;cruiser output Pages: 1 -->
<svg width="351pt" height="446pt"
 viewBox="0.00 0.00 351.00 446.00" xmlns="http://www.w3.org/2000/svg" xmlns:xlink="http://www.w3.org/1999/xlink">
<g id="graph0" class="graph" transform="scale(1 1) rotate(0) translate(4 442)">
<title>dependency&#45;cruiser output</title>
<polygon fill="white" stroke="none" points="-4,4 -4,-442 347,-442 347,4 -4,4"/>
<g id="clust1" class="cluster">
<title>cluster_src</title>
<path fill="#ffffff" stroke="black" stroke-width="2" d="M20,-8C20,-8 323,-8 323,-8 329,-8 335,-14 335,-20 335,-20 335,-418 335,-418 335,-424 329,-430 323,-430 323,-430 20,-430 20,-430 14,-430 8,-424 8,-418 8,-418 8,-20 8,-20 8,-14 14,-8 20,-8"/>
<text text-anchor="middle" x="171.5" y="-418.8" font-family="Helvetica,sans-Serif" font-weight="bold" font-size="9.00">src</text>
</g>
<g id="clust2" class="cluster">
<title>cluster_src/js</title>
<path fill="#ffffff" stroke="black" stroke-width="2" d="M90,-18C90,-18 315,-18 315,-18 321,-18 327,-24 327,-30 327,-30 327,-392 327,-392 327,-398 321,-404 315,-404 315,-404 90,-404 90,-404 84,-404 78,-398 78,-392 78,-392 78,-30 78,-30 78,-24 84,-18 90,-18"/>
<text text-anchor="middle" x="202.5" y="-392.8" font-family="Helvetica,sans-Serif" font-weight="bold" font-size="9.00">js</text>
</g>
<g id="clust3" class="cluster">
<title>cluster_src/js/components</title>
<path fill="#ffffff" stroke="black" stroke-width="2" d="M193,-44C193,-44 307,-44 307,-44 313,-44 319,-50 319,-56 319,-56 319,-174 319,-174 319,-180 313,-186 307,-186 307,-186 193,-186 193,-186 187,-186 181,-180 181,-174 181,-174 181,-56 181,-56 181,-50 187,-44 193,-44"/>
<text text-anchor="middle" x="250" y="-174.8" font-family="Helvetica,sans-Serif" font-weight="bold" font-size="9.00">components</text>
</g>
<g id="clust4" class="cluster">
<title>cluster_src/js/engine</title>
<path fill="#ffffff" stroke="black" stroke-width="2" d="M106,-326C106,-326 153,-326 153,-326 159,-326 165,-332 165,-338 165,-338 165,-366 165,-366 165,-372 159,-378 153,-378 153,-378 106,-378 106,-378 100,-378 94,-372 94,-366 94,-366 94,-338 94,-338 94,-332 100,-326 106,-326"/>
<text text-anchor="middle" x="129.5" y="-366.8" font-family="Helvetica,sans-Serif" font-weight="bold" font-size="9.00">engine</text>
</g>
<g id="clust5" class="cluster">
<title>cluster_src/js/main</title>
<path fill="#ffffff" stroke="black" stroke-width="2" d="M105.5,-206C105.5,-206 153.5,-206 153.5,-206 159.5,-206 165.5,-212 165.5,-218 165.5,-218 165.5,-306 165.5,-306 165.5,-312 159.5,-318 153.5,-318 153.5,-318 105.5,-318 105.5,-318 99.5,-318 93.5,-312 93.5,-306 93.5,-306 93.5,-218 93.5,-218 93.5,-212 99.5,-206 105.5,-206"/>
<text text-anchor="middle" x="129.5" y="-306.8" font-family="Helvetica,sans-Serif" font-weight="bold" font-size="9.00">main</text>
</g>
<g id="clust6" class="cluster">
<title>cluster_src/js/pages</title>
<path fill="#ffffff" stroke="black" stroke-width="2" d="M98,-26C98,-26 161,-26 161,-26 167,-26 173,-32 173,-38 173,-38 173,-186 173,-186 173,-192 167,-198 161,-198 161,-198 98,-198 98,-198 92,-198 86,-192 86,-186 86,-186 86,-38 86,-38 86,-32 92,-26 98,-26"/>
<text text-anchor="middle" x="129.5" y="-186.8" font-family="Helvetica,sans-Serif" font-weight="bold" font-size="9.00">pages</text>
</g>
<!-- src/App.js -->
<g id="node1" class="node">
<title>src/App.js</title>
<g id="a_node1"><a xlink:href="src/App.js" xlink:title="App.js">
<path fill="#ffffcc" stroke="black" d="M64,-157C64,-157 22,-157 22,-157 19,-157 16,-154 16,-151 16,-151 16,-145 16,-145 16,-142 19,-139 22,-139 22,-139 64,-139 64,-139 67,-139 70,-142 70,-145 70,-145 70,-151 70,-151 70,-154 67,-157 64,-157"/>
<text text-anchor="start" x="30" y="-145.8" font-family="Helvetica,sans-Serif" font-size="9.00">App.js</text>
</a>
</g>
</g>
<!-- src/js/components/Screen.js -->
<g id="node2" class="node">
<title>src/js/components/Screen.js</title>
<g id="a_node2"><a xlink:href="src/js/components/Screen.js" xlink:title="Screen.js">
<path fill="#ffffcc" stroke="black" d="M238,-70C238,-70 195,-70 195,-70 192,-70 189,-67 189,-64 189,-64 189,-58 189,-58 189,-55 192,-52 195,-52 195,-52 238,-52 238,-52 241,-52 244,-55 244,-58 244,-58 244,-64 244,-64 244,-67 241,-70 238,-70"/>
<text text-anchor="start" x="197" y="-58.8" font-family="Helvetica,sans-Serif" font-size="9.00">Screen.js</text>
</a>
</g>
</g>
<!-- src/App.js&#45;&gt;src/js/components/Screen.js -->
<g id="edge1" class="edge">
<title>src/App.js&#45;&gt;src/js/components/Screen.js</title>
<path fill="none" stroke="#000000" stroke-width="2" stroke-opacity="0.200000" d="M45.08,-138.73C48.38,-112.27 59.24,-37.34 78,-23 111.55,2.64 133.56,-7.94 173,-23 184.7,-27.47 195.22,-36.81 202.87,-45.11"/>
<polygon fill="#000000" fill-opacity="0.200000" stroke="#000000" stroke-width="2" stroke-opacity="0.200000" points="202.06,-46.54 207.58,-49.71 205.24,-43.79 202.06,-46.54"/>
</g>
<!-- src/js/engine/Engine.js -->
<g id="node3" class="node">
<title>src/js/engine/Engine.js</title>
<g id="a_node3"><a xlink:href="src/js/engine/Engine.js" xlink:title="Engine.js">
<path fill="#ffffcc" stroke="black" d="M151,-352C151,-352 108,-352 108,-352 105,-352 102,-349 102,-346 102,-346 102,-340 102,-340 102,-337 105,-334 108,-334 108,-334 151,-334 151,-334 154,-334 157,-337 157,-340 157,-340 157,-346 157,-346 157,-349 154,-352 151,-352"/>
<text text-anchor="start" x="110" y="-340.8" font-family="Helvetica,sans-Serif" font-size="9.00">Engine.js</text>
</a>
</g>
</g>
<!-- src/App.js&#45;&gt;src/js/engine/Engine.js -->
<g id="edge2" class="edge">
<title>src/App.js&#45;&gt;src/js/engine/Engine.js</title>
<path fill="none" stroke="#000000" stroke-width="2" stroke-opacity="0.200000" d="M44.71,-157.46C47.32,-189.79 57.29,-295.23 78,-321 82.08,-326.07 87.56,-330 93.4,-333.04"/>
<polygon fill="#000000" fill-opacity="0.200000" stroke="#000000" stroke-width="2" stroke-opacity="0.200000" points="93.17,-335.13 99.51,-335.65 94.88,-331.29 93.17,-335.13"/>
</g>
<!-- src/js/main/Control.js -->
<g id="node4" class="node">
<title>src/js/main/Control.js</title>
<g id="a_node4"><a xlink:href="src/js/main/Control.js" xlink:title="Control.js">
<path fill="#ffffcc" stroke="black" d="M151.5,-262C151.5,-262 107.5,-262 107.5,-262 104.5,-262 101.5,-259 101.5,-256 101.5,-256 101.5,-250 101.5,-250 101.5,-247 104.5,-244 107.5,-244 107.5,-244 151.5,-244 151.5,-244 154.5,-244 157.5,-247 157.5,-250 157.5,-250 157.5,-256 157.5,-256 157.5,-259 154.5,-262 151.5,-262"/>
<text text-anchor="start" x="109.5" y="-250.8" font-family="Helvetica,sans-Serif" font-size="9.00">Control.js</text>
</a>
</g>
</g>
<!-- src/App.js&#45;&gt;src/js/main/Control.js -->
<g id="edge3" class="edge">
<title>src/App.js&#45;&gt;src/js/main/Control.js</title>
<path fill="none" stroke="#000000" stroke-width="2" stroke-opacity="0.200000" d="M44.84,-157.4C46.98,-175.63 54.27,-215.93 78,-238 82.18,-241.88 87.31,-244.76 92.69,-246.9"/>
<polygon fill="#000000" fill-opacity="0.200000" stroke="#000000" stroke-width="2" stroke-opacity="0.200000" points="92.9,-249.83 99.25,-249.69 94.19,-245.83 92.9,-249.83"/>
</g>
<!-- src/js/main/Map.js -->
<g id="node5" class="node">
<title>src/js/main/Map.js</title>
<g id="a_node5"><a xlink:href="src/js/main/Map.js" xlink:title="Map.js">
<path fill="#ffffcc" stroke="black" d="M150.5,-292C150.5,-292 108.5,-292 108.5,-292 105.5,-292 102.5,-289 102.5,-286 102.5,-286 102.5,-280 102.5,-280 102.5,-277 105.5,-274 108.5,-274 108.5,-274 150.5,-274 150.5,-274 153.5,-274 156.5,-277 156.5,-280 156.5,-280 156.5,-286 156.5,-286 156.5,-289 153.5,-292 150.5,-292"/>
<text text-anchor="start" x="115.5" y="-280.8" font-family="Helvetica,sans-Serif" font-size="9.00">Map.js</text>
</a>
</g>
</g>
<!-- src/App.js&#45;&gt;src/js/main/Map.js -->
<g id="edge4" class="edge">
<title>src/App.js&#45;&gt;src/js/main/Map.js</title>
<path fill="none" stroke="#000000" stroke-width="2" stroke-opacity="0.200000" d="M43.8,-157.28C43.83,-179.59 47.12,-236.72 78,-268 82.32,-272.37 87.85,-275.48 93.66,-277.69"/>
<polygon fill="#000000" fill-opacity="0.200000" stroke="#000000" stroke-width="2" stroke-opacity="0.200000" points="93.9,-280.58 100.26,-280.33 95.13,-276.56 93.9,-280.58"/>
</g>
<!-- src/js/main/Panel.js -->
<g id="node6" class="node">
<title>src/js/main/Panel.js</title>
<g id="a_node6"><a xlink:href="src/js/main/Panel.js" xlink:title="Panel.js">
<path fill="#ffffcc" stroke="black" d="M150.5,-232C150.5,-232 108.5,-232 108.5,-232 105.5,-232 102.5,-229 102.5,-226 102.5,-226 102.5,-220 102.5,-220 102.5,-217 105.5,-214 108.5,-214 108.5,-214 150.5,-214 150.5,-214 153.5,-214 156.5,-217 156.5,-220 156.5,-220 156.5,-226 156.5,-226 156.5,-229 153.5,-232 150.5,-232"/>
<text text-anchor="start" x="112.5" y="-220.8" font-family="Helvetica,sans-Serif" font-size="9.00">Panel.js</text>
</a>
</g>
</g>
<!-- src/App.js&#45;&gt;src/js/main/Panel.js -->
<g id="edge5" class="edge">
<title>src/App.js&#45;&gt;src/js/main/Panel.js</title>
<path fill="none" stroke="#000000" stroke-width="2" stroke-opacity="0.200000" d="M47.96,-157.44C53.26,-169.07 63.69,-188.81 78,-201 82.8,-205.09 88.49,-208.54 94.28,-211.4"/>
<polygon fill="#000000" fill-opacity="0.200000" stroke="#000000" stroke-width="2" stroke-opacity="0.200000" points="93.83,-213.4 100.17,-213.94 95.55,-209.57 93.83,-213.4"/>
</g>
<!-- src/js/pages/History.js -->
<g id="node7" class="node">
<title>src/js/pages/History.js</title>
<g id="a_node7"><a xlink:href="src/js/pages/History.js" xlink:title="History.js">
<path fill="#ffffcc" stroke="black" d="M150.5,-142C150.5,-142 108.5,-142 108.5,-142 105.5,-142 102.5,-139 102.5,-136 102.5,-136 102.5,-130 102.5,-130 102.5,-127 105.5,-124 108.5,-124 108.5,-124 150.5,-124 150.5,-124 153.5,-124 156.5,-127 156.5,-130 156.5,-130 156.5,-136 156.5,-136 156.5,-139 153.5,-142 150.5,-142"/>
<text text-anchor="start" x="110.5" y="-130.8" font-family="Helvetica,sans-Serif" font-size="9.00">History.js</text>
</a>
</g>
</g>
<!-- src/App.js&#45;&gt;src/js/pages/History.js -->
<g id="edge6" class="edge">
<title>src/App.js&#45;&gt;src/js/pages/History.js</title>
<path fill="none" stroke="#000000" stroke-width="2" stroke-opacity="0.200000" d="M70.27,-143.34C77.67,-142.02 85.82,-140.58 93.63,-139.19"/>
<polygon fill="#000000" fill-opacity="0.200000" stroke="#000000" stroke-width="2" stroke-opacity="0.200000" points="94.7,-140.78 100.24,-137.66 93.97,-136.64 94.7,-140.78"/>
</g>
<!-- src/js/pages/Information.js -->
<g id="node8" class="node">
<title>src/js/pages/Information.js</title>
<g id="a_node8"><a xlink:href="src/js/pages/Information.js" xlink:title="Information.js">
<path fill="#ffffcc" stroke="black" d="M159,-52C159,-52 100,-52 100,-52 97,-52 94,-49 94,-46 94,-46 94,-40 94,-40 94,-37 97,-34 100,-34 100,-34 159,-34 159,-34 162,-34 165,-37 165,-40 165,-40 165,-46 165,-46 165,-49 162,-52 159,-52"/>
<text text-anchor="start" x="102" y="-40.8" font-family="Helvetica,sans-Serif" font-size="9.00">Information.js</text>
</a>
</g>
</g>
<!-- src/App.js&#45;&gt;src/js/pages/Information.js -->
<g id="edge7" class="edge">
<title>src/App.js&#45;&gt;src/js/pages/Information.js</title>
<path fill="none" stroke="#000000" stroke-width="2" stroke-opacity="0.200000" d="M44.84,-138.6C46.98,-120.37 54.27,-80.07 78,-58 80.28,-55.88 82.84,-54.06 85.58,-52.49"/>
<polygon fill="#000000" fill-opacity="0.200000" stroke="#000000" stroke-width="2" stroke-opacity="0.200000" points="87.1,-54.17 91.64,-49.73 85.32,-50.37 87.1,-54.17"/>
</g>
<!-- src/js/pages/Location.js -->
<g id="node9" class="node">
<title>src/js/pages/Location.js</title>
<g id="a_node9"><a xlink:href="src/js/pages/Location.js" xlink:title="Location.js">
<path fill="#ffffcc" stroke="black" d="M154,-112C154,-112 105,-112 105,-112 102,-112 99,-109 99,-106 99,-106 99,-100 99,-100 99,-97 102,-94 105,-94 105,-94 154,-94 154,-94 157,-94 160,-97 160,-100 160,-100 160,-106 160,-106 160,-109 157,-112 154,-112"/>
<text text-anchor="start" x="107" y="-100.8" font-family="Helvetica,sans-Serif" font-size="9.00">Location.js</text>
</a>
</g>
</g>
<!-- src/App.js&#45;&gt;src/js/pages/Location.js -->
<g id="edge8" class="edge">
<title>src/App.js&#45;&gt;src/js/pages/Location.js</title>
<path fill="none" stroke="#000000" stroke-width="2" stroke-opacity="0.200000" d="M52.4,-138.67C58.83,-132.05 68.22,-123.42 78,-118 81.85,-115.87 86.04,-114.01 90.3,-112.39"/>
<polygon fill="#000000" fill-opacity="0.200000" stroke="#000000" stroke-width="2" stroke-opacity="0.200000" points="91.53,-113.51 96.52,-109.58 90.17,-109.53 91.53,-113.51"/>
</g>
<!-- src/js/pages/Settings.js -->
<g id="node10" class="node">
<title>src/js/pages/Settings.js</title>
<g id="a_node10"><a xlink:href="src/js/pages/Settings.js" xlink:title="Settings.js">
<path fill="#ffffcc" stroke="black" d="M153,-172C153,-172 106,-172 106,-172 103,-172 100,-169 100,-166 100,-166 100,-160 100,-160 100,-157 103,-154 106,-154 106,-154 153,-154 153,-154 156,-154 159,-157 159,-160 159,-160 159,-166 159,-166 159,-169 156,-172 153,-172"/>
<text text-anchor="start" x="108" y="-160.8" font-family="Helvetica,sans-Serif" font-size="9.00">Settings.js</text>
</a>
</g>
</g>
<!-- src/App.js&#45;&gt;src/js/pages/Settings.js -->
<g id="edge9" class="edge">
<title>src/App.js&#45;&gt;src/js/pages/Settings.js</title>
<path fill="none" stroke="#000000" stroke-width="2" stroke-opacity="0.200000" d="M70.27,-152.66C76.81,-153.82 83.95,-155.09 90.92,-156.33"/>
<polygon fill="#000000" fill-opacity="0.200000" stroke="#000000" stroke-width="2" stroke-opacity="0.200000" points="91.32,-158.89 97.6,-157.87 92.06,-154.75 91.32,-158.89"/>
</g>
<!-- src/js/pages/Statistics.js -->
<g id="node11" class="node">
<title>src/js/pages/Statistics.js</title>
<g id="a_node11"><a xlink:href="src/js/pages/Statistics.js" xlink:title="Statistics.js">
<path fill="#ffffcc" stroke="black" d="M154.5,-82C154.5,-82 104.5,-82 104.5,-82 101.5,-82 98.5,-79 98.5,-76 98.5,-76 98.5,-70 98.5,-70 98.5,-67 101.5,-64 104.5,-64 104.5,-64 154.5,-64 154.5,-64 157.5,-64 160.5,-67 160.5,-70 160.5,-70 160.5,-76 160.5,-76 160.5,-79 157.5,-82 154.5,-82"/>
<text text-anchor="start" x="106.5" y="-70.8" font-family="Helvetica,sans-Serif" font-size="9.00">Statistics.js</text>
</a>
</g>
</g>
<!-- src/App.js&#45;&gt;src/js/pages/Statistics.js -->
<g id="edge10" class="edge">
<title>src/App.js&#45;&gt;src/js/pages/Statistics.js</title>
<path fill="none" stroke="#000000" stroke-width="2" stroke-opacity="0.200000" d="M46.75,-138.82C51.18,-125.63 61.13,-101.42 78,-88 81.53,-85.19 85.58,-82.91 89.81,-81.05"/>
<polygon fill="#000000" fill-opacity="0.200000" stroke="#000000" stroke-width="2" stroke-opacity="0.200000" points="91.2,-83.03 96.1,-78.98 89.74,-79.1 91.2,-83.03"/>
</g>
<!-- src/js/components/Button.js -->
<g id="node13" class="node">
<title>src/js/components/Button.js</title>
<g id="a_node13"><a xlink:href="src/js/components/Button.js" xlink:title="Button.js">
<path fill="#ffffcc" stroke="black" d="M305,-160C305,-160 263,-160 263,-160 260,-160 257,-157 257,-154 257,-154 257,-148 257,-148 257,-145 260,-142 263,-142 263,-142 305,-142 305,-142 308,-142 311,-145 311,-148 311,-148 311,-154 311,-154 311,-157 308,-160 305,-160"/>
<text text-anchor="start" x="266" y="-148.8" font-family="Helvetica,sans-Serif" font-size="9.00">Button.js</text>
</a>
</g>
</g>
<!-- src/js/components/Screen.js&#45;&gt;src/js/components/Button.js -->
<g id="edge11" class="edge">
<title>src/js/components/Screen.js&#45;&gt;src/js/components/Button.js</title>
<path fill="none" stroke="#000000" stroke-width="2" stroke-opacity="0.200000" d="M237.26,-70.44C239.69,-72.09 242.02,-73.95 244,-76 259.99,-92.57 271.04,-117.01 277.18,-133.45"/>
<polygon fill="#000000" fill-opacity="0.200000" stroke="#000000" stroke-width="2" stroke-opacity="0.200000" points="275.11,-134.7 279.1,-139.65 279.07,-133.29 275.11,-134.7"/>
</g>
<!-- src/js/main/Control.js&#45;&gt;src/js/components/Button.js -->
<g id="edge12" class="edge">
<title>src/js/main/Control.js&#45;&gt;src/js/components/Button.js</title>
<path fill="none" stroke="#000000" stroke-width="2" stroke-opacity="0.200000" d="M157.93,-244.52C163.04,-242.61 168.26,-240.42 173,-238 207.15,-220.58 214.39,-213.35 244,-189 252.5,-182.01 261.33,-173.52 268.43,-166.35"/>
<polygon fill="#000000" fill-opacity="0.200000" stroke="#000000" stroke-width="2" stroke-opacity="0.200000" points="269.73,-167.96 272.42,-162.2 266.73,-165.03 269.73,-167.96"/>
</g>
<!-- src/js/main/Panel.js&#45;&gt;src/js/components/Button.js -->
<g id="edge13" class="edge">
<title>src/js/main/Panel.js&#45;&gt;src/js/components/Button.js</title>
<path fill="none" stroke="#000000" stroke-width="2" stroke-opacity="0.200000" d="M151.97,-213.5C174.89,-203.29 212.21,-186.42 244,-171 248.36,-168.88 252.97,-166.58 257.43,-164.31"/>
<polygon fill="#000000" fill-opacity="0.200000" stroke="#000000" stroke-width="2" stroke-opacity="0.200000" points="258.84,-165.93 263.22,-161.33 256.92,-162.19 258.84,-165.93"/>
</g>
<!-- src/js/components/Text.js -->
<g id="node15" class="node">
<title>src/js/components/Text.js</title>
<g id="a_node15"><a xlink:href="src/js/components/Text.js" xlink:title="Text.js">
<path fill="#ffffcc" stroke="black" d="M237.5,-160C237.5,-160 195.5,-160 195.5,-160 192.5,-160 189.5,-157 189.5,-154 189.5,-154 189.5,-148 189.5,-148 189.5,-145 192.5,-142 195.5,-142 195.5,-142 237.5,-142 237.5,-142 240.5,-142 243.5,-145 243.5,-148 243.5,-148 243.5,-154 243.5,-154 243.5,-157 240.5,-160 237.5,-160"/>
<text text-anchor="start" x="203.5" y="-148.8" font-family="Helvetica,sans-Serif" font-size="9.00">Text.js</text>
</a>
</g>
</g>
<!-- src/js/main/Panel.js&#45;&gt;src/js/components/Text.js -->
<g id="edge14" class="edge">
<title>src/js/main/Panel.js&#45;&gt;src/js/components/Text.js</title>
<path fill="none" stroke="#000000" stroke-width="2" stroke-opacity="0.200000" d="M152.68,-213.56C159.53,-210.12 166.89,-205.86 173,-201 185.05,-191.41 196.23,-178.01 204.09,-167.49"/>
<polygon fill="#000000" fill-opacity="0.200000" stroke="#000000" stroke-width="2" stroke-opacity="0.200000" points="206.38,-168.53 208.2,-162.44 202.98,-166.07 206.38,-168.53"/>
</g>
<!-- src/js/components/Board.js -->
<g id="node12" class="node">
<title>src/js/components/Board.js</title>
<g id="a_node12"><a xlink:href="src/js/components/Board.js" xlink:title="Board.js">
<path fill="#ffffcc" stroke="black" d="M237.5,-100C237.5,-100 195.5,-100 195.5,-100 192.5,-100 189.5,-97 189.5,-94 189.5,-94 189.5,-88 189.5,-88 189.5,-85 192.5,-82 195.5,-82 195.5,-82 237.5,-82 237.5,-82 240.5,-82 243.5,-85 243.5,-88 243.5,-88 243.5,-94 243.5,-94 243.5,-97 240.5,-100 237.5,-100"/>
<text text-anchor="start" x="199.5" y="-88.8" font-family="Helvetica,sans-Serif" font-size="9.00">Board.js</text>
</a>
</g>
</g>
<!-- src/js/pages/History.js&#45;&gt;src/js/components/Board.js -->
<g id="edge15" class="edge">
<title>src/js/pages/History.js&#45;&gt;src/js/components/Board.js</title>
<path fill="none" stroke="#000000" stroke-width="2" stroke-opacity="0.200000" d="M156.58,-126.76C162.36,-124.6 168.18,-121.75 173,-118 178.06,-114.06 176.08,-110.11 181,-106 181.31,-105.74 181.63,-105.48 181.95,-105.23"/>
<polygon fill="#000000" fill-opacity="0.200000" stroke="#000000" stroke-width="2" stroke-opacity="0.200000" points="183.42,-106.47 187.3,-101.44 181.13,-102.95 183.42,-106.47"/>
</g>
<!-- src/js/components/Form.js -->
<g id="node14" class="node">
<title>src/js/components/Form.js</title>
<g id="a_node14"><a xlink:href="src/js/components/Form.js" xlink:title="Form.js">
<path fill="#ffffcc" stroke="black" d="M237.5,-130C237.5,-130 195.5,-130 195.5,-130 192.5,-130 189.5,-127 189.5,-124 189.5,-124 189.5,-118 189.5,-118 189.5,-115 192.5,-112 195.5,-112 195.5,-112 237.5,-112 237.5,-112 240.5,-112 243.5,-115 243.5,-118 243.5,-118 243.5,-124 243.5,-124 243.5,-127 240.5,-130 237.5,-130"/>
<text text-anchor="start" x="201" y="-118.8" font-family="Helvetica,sans-Serif" font-size="9.00">Form.js</text>
</a>
</g>
</g>
<!-- src/js/pages/History.js&#45;&gt;src/js/components/Form.js -->
<g id="edge16" class="edge">
<title>src/js/pages/History.js&#45;&gt;src/js/components/Form.js</title>
<path fill="none" stroke="#000000" stroke-width="2" stroke-opacity="0.200000" d="M156.93,-129.27C164.36,-128.22 172.57,-127.06 180.43,-125.95"/>
<polygon fill="#000000" fill-opacity="0.200000" stroke="#000000" stroke-width="2" stroke-opacity="0.200000" points="181.44,-127.65 187.09,-124.73 180.85,-123.49 181.44,-127.65"/>
</g>
<!-- src/js/pages/History.js&#45;&gt;src/js/components/Text.js -->
<g id="edge17" class="edge">
<title>src/js/pages/History.js&#45;&gt;src/js/components/Text.js</title>
<path fill="none" stroke="#000000" stroke-width="2" stroke-opacity="0.200000" d="M156.93,-138.6C164.36,-140.17 172.57,-141.91 180.43,-143.57"/>
<polygon fill="#000000" fill-opacity="0.200000" stroke="#000000" stroke-width="2" stroke-opacity="0.200000" points="180.78,-146.22 187.09,-145.41 181.65,-142.11 180.78,-146.22"/>
</g>
<!-- src/js/pages/Information.js&#45;&gt;src/js/components/Board.js -->
<g id="edge18" class="edge">
<title>src/js/pages/Information.js&#45;&gt;src/js/components/Board.js</title>
<path fill="none" stroke="#000000" stroke-width="2" stroke-opacity="0.200000" d="M165.3,-52.48C168.08,-54.05 170.7,-55.88 173,-58 179.43,-63.94 174.78,-69.83 181,-76 181.45,-76.45 181.92,-76.88 182.4,-77.31"/>
<polygon fill="#000000" fill-opacity="0.200000" stroke="#000000" stroke-width="2" stroke-opacity="0.200000" points="181.17,-79.42 187.29,-81.16 183.59,-75.99 181.17,-79.42"/>
</g>
<!-- src/js/pages/Information.js&#45;&gt;src/js/components/Form.js -->
<g id="edge19" class="edge">
<title>src/js/pages/Information.js&#45;&gt;src/js/components/Form.js</title>
<path fill="none" stroke="#000000" stroke-width="2" stroke-opacity="0.200000" d="M165.11,-51.4C168.08,-53.19 170.79,-55.36 173,-58 186.91,-74.56 167.69,-88.95 181,-106 181.41,-106.52 181.84,-107.02 182.28,-107.51"/>
<polygon fill="#000000" fill-opacity="0.200000" stroke="#000000" stroke-width="2" stroke-opacity="0.200000" points="181.02,-109.79 187.01,-111.91 183.65,-106.52 181.02,-109.79"/>
</g>
<!-- src/js/pages/Location.js&#45;&gt;src/js/components/Board.js -->
<g id="edge20" class="edge">
<title>src/js/pages/Location.js&#45;&gt;src/js/components/Board.js</title>
<path fill="none" stroke="#000000" stroke-width="2" stroke-opacity="0.200000" d="M160.23,-98.8C166.68,-97.89 173.56,-96.92 180.21,-95.98"/>
<polygon fill="#000000" fill-opacity="0.200000" stroke="#000000" stroke-width="2" stroke-opacity="0.200000" points="181.4,-97.65 187.05,-94.73 180.81,-93.49 181.4,-97.65"/>
</g>
<!-- src/js/pages/Location.js&#45;&gt;src/js/components/Form.js -->
<g id="edge21" class="edge">
<title>src/js/pages/Location.js&#45;&gt;src/js/components/Form.js</title>
<path fill="none" stroke="#000000" stroke-width="2" stroke-opacity="0.200000" d="M160.23,-109.3C166.83,-110.69 173.88,-112.19 180.66,-113.62"/>
<polygon fill="#000000" fill-opacity="0.200000" stroke="#000000" stroke-width="2" stroke-opacity="0.200000" points="180.74,-116.21 187.05,-115.4 181.61,-112.1 180.74,-116.21"/>
</g>
<!-- src/js/pages/Location.js&#45;&gt;src/js/components/Text.js -->
<g id="edge22" class="edge">
<title>src/js/pages/Location.js&#45;&gt;src/js/components/Text.js</title>
<path fill="none" stroke="#000000" stroke-width="2" stroke-opacity="0.200000" d="M160.15,-109.92C164.83,-111.96 169.32,-114.6 173,-118 179.43,-123.94 174.78,-129.83 181,-136 181.45,-136.45 181.92,-136.88 182.4,-137.31"/>
<polygon fill="#000000" fill-opacity="0.200000" stroke="#000000" stroke-width="2" stroke-opacity="0.200000" points="181.17,-139.42 187.29,-141.16 183.59,-135.99 181.17,-139.42"/>
</g>
<!-- src/js/pages/Settings.js&#45;&gt;src/js/components/Board.js -->
<g id="edge23" class="edge">
<title>src/js/pages/Settings.js&#45;&gt;src/js/components/Board.js</title>
<path fill="none" stroke="#000000" stroke-width="2" stroke-opacity="0.200000" d="M159.12,-157.51C164.36,-155.33 169.33,-152.27 173,-148 185.38,-133.59 169.13,-120.84 181,-106 181.41,-105.48 181.85,-104.98 182.3,-104.5"/>
<polygon fill="#000000" fill-opacity="0.200000" stroke="#000000" stroke-width="2" stroke-opacity="0.200000" points="183.67,-105.51 187.07,-100.13 181.07,-102.22 183.67,-105.51"/>
</g>
<!-- src/js/pages/Settings.js&#45;&gt;src/js/components/Button.js -->
<g id="edge24" class="edge">
<title>src/js/pages/Settings.js&#45;&gt;src/js/components/Button.js</title>
<path fill="none" stroke="#000000" stroke-width="2" stroke-opacity="0.200000" d="M159.21,-167.05C182.32,-169.52 215.51,-171.29 244,-166 247.43,-165.36 250.95,-164.43 254.41,-163.35"/>
<polygon fill="#000000" fill-opacity="0.200000" stroke="#000000" stroke-width="2" stroke-opacity="0.200000" points="255.81,-165.37 260.77,-161.4 254.41,-161.41 255.81,-165.37"/>
</g>
<!-- src/js/pages/Settings.js&#45;&gt;src/js/components/Form.js -->
<g id="edge25" class="edge">
<title>src/js/pages/Settings.js&#45;&gt;src/js/components/Form.js</title>
<path fill="none" stroke="#000000" stroke-width="2" stroke-opacity="0.200000" d="M159.25,-155.72C164.12,-153.7 168.92,-151.17 173,-148 178.06,-144.06 176.08,-140.11 181,-136 181.31,-135.74 181.63,-135.48 181.95,-135.23"/>
<polygon fill="#000000" fill-opacity="0.200000" stroke="#000000" stroke-width="2" stroke-opacity="0.200000" points="183.42,-136.47 187.3,-131.44 181.13,-132.95 183.42,-136.47"/>
</g>
<!-- src/js/pages/Settings.js&#45;&gt;src/js/components/Text.js -->
<g id="edge26" class="edge">
<title>src/js/pages/Settings.js&#45;&gt;src/js/components/Text.js</title>
<path fill="none" stroke="#000000" stroke-width="2" stroke-opacity="0.200000" d="M159.28,-158.94C166.05,-157.98 173.34,-156.95 180.36,-155.96"/>
<polygon fill="#000000" fill-opacity="0.200000" stroke="#000000" stroke-width="2" stroke-opacity="0.200000" points="181.39,-157.65 187.04,-154.74 180.81,-153.49 181.39,-157.65"/>
</g>
<!-- src/js/pages/Statistics.js&#45;&gt;src/js/components/Board.js -->
<g id="edge27" class="edge">
<title>src/js/pages/Statistics.js&#45;&gt;src/js/components/Board.js</title>
<path fill="none" stroke="#000000" stroke-width="2" stroke-opacity="0.200000" d="M160.71,-79.4C167.07,-80.74 173.84,-82.18 180.37,-83.56"/>
<polygon fill="#000000" fill-opacity="0.200000" stroke="#000000" stroke-width="2" stroke-opacity="0.200000" points="180.75,-86.21 187.06,-85.4 181.62,-82.1 180.75,-86.21"/>
</g>
<!-- src/js/pages/Statistics.js&#45;&gt;src/js/components/Form.js -->
<g id="edge28" class="edge">
<title>src/js/pages/Statistics.js&#45;&gt;src/js/components/Form.js</title>
<path fill="none" stroke="#000000" stroke-width="2" stroke-opacity="0.200000" d="M160.59,-80.11C165.11,-82.13 169.44,-84.71 173,-88 179.43,-93.94 174.78,-99.83 181,-106 181.45,-106.45 181.92,-106.88 182.4,-107.31"/>
<polygon fill="#000000" fill-opacity="0.200000" stroke="#000000" stroke-width="2" stroke-opacity="0.200000" points="181.17,-109.42 187.29,-111.16 183.59,-105.99 181.17,-109.42"/>
</g>
</g>
</svg>
