<?xml version="1.0" encoding="UTF-8" standalone="no"?>
<!DOCTYPE svg PUBLIC "-//W3C//DTD SVG 1.1//EN"
 "http://www.w3.org/Graphics/SVG/1.1/DTD/svg11.dtd">
<!-- Generated by graphviz version 8.0.1 (20230327.1645)
 -->
<!-- Title: dependency&#45;cruiser output Pages: 1 -->
<svg width="354pt" height="296pt"
 viewBox="0.00 0.00 354.00 296.00" xmlns="http://www.w3.org/2000/svg" xmlns:xlink="http://www.w3.org/1999/xlink">
<g id="graph0" class="graph" transform="scale(1 1) rotate(0) translate(4 292)">
<title>dependency&#45;cruiser output</title>
<polygon fill="white" stroke="none" points="-4,4 -4,-292 350,-292 350,4 -4,4"/>
<g id="clust1" class="cluster">
<title>cluster_src</title>
<path fill="#ffffff" stroke="black" stroke-width="2" d="M20,-8C20,-8 326,-8 326,-8 332,-8 338,-14 338,-20 338,-20 338,-268 338,-268 338,-274 332,-280 326,-280 326,-280 20,-280 20,-280 14,-280 8,-274 8,-268 8,-268 8,-20 8,-20 8,-14 14,-8 20,-8"/>
<text text-anchor="middle" x="173" y="-268.8" font-family="Helvetica,sans-Serif" font-weight="bold" font-size="9.00">src</text>
</g>
<g id="clust2" class="cluster">
<title>cluster_src/js</title>
<path fill="#ffffff" stroke="black" stroke-width="2" d="M90,-48C90,-48 318,-48 318,-48 324,-48 330,-54 330,-60 330,-60 330,-242 330,-242 330,-248 324,-254 318,-254 318,-254 90,-254 90,-254 84,-254 78,-248 78,-242 78,-242 78,-60 78,-60 78,-54 84,-48 90,-48"/>
<text text-anchor="middle" x="204" y="-242.8" font-family="Helvetica,sans-Serif" font-weight="bold" font-size="9.00">js</text>
</g>
<g id="clust3" class="cluster">
<title>cluster_src/js/components</title>
<path fill="#ffffff" stroke="black" stroke-width="2" d="M263,-71C263,-71 310,-71 310,-71 316,-71 322,-77 322,-83 322,-83 322,-141 322,-141 322,-147 316,-153 310,-153 310,-153 263,-153 263,-153 257,-153 251,-147 251,-141 251,-141 251,-83 251,-83 251,-77 257,-71 263,-71"/>
<text text-anchor="middle" x="286.5" y="-141.8" font-family="Helvetica,sans-Serif" font-weight="bold" font-size="9.00">components</text>
</g>
<g id="clust4" class="cluster">
<title>cluster_src/js/engine</title>
<path fill="#ffffff" stroke="black" stroke-width="2" d="M98.5,-176C98.5,-176 145.5,-176 145.5,-176 151.5,-176 157.5,-182 157.5,-188 157.5,-188 157.5,-216 157.5,-216 157.5,-222 151.5,-228 145.5,-228 145.5,-228 98.5,-228 98.5,-228 92.5,-228 86.5,-222 86.5,-216 86.5,-216 86.5,-188 86.5,-188 86.5,-182 92.5,-176 98.5,-176"/>
<text text-anchor="middle" x="122" y="-216.8" font-family="Helvetica,sans-Serif" font-weight="bold" font-size="9.00">engine</text>
</g>
<g id="clust5" class="cluster">
<title>cluster_src/js/main</title>
<path fill="#ffffff" stroke="black" stroke-width="2" d="M98,-56C98,-56 146,-56 146,-56 152,-56 158,-62 158,-68 158,-68 158,-156 158,-156 158,-162 152,-168 146,-168 146,-168 98,-168 98,-168 92,-168 86,-162 86,-156 86,-156 86,-68 86,-68 86,-62 92,-56 98,-56"/>
<text text-anchor="middle" x="122" y="-156.8" font-family="Helvetica,sans-Serif" font-weight="bold" font-size="9.00">main</text>
</g>
<g id="clust6" class="cluster">
<title>cluster_src/js/pages</title>
<path fill="#ffffff" stroke="black" stroke-width="2" d="M178,-78C178,-78 231,-78 231,-78 237,-78 243,-84 243,-90 243,-90 243,-178 243,-178 243,-184 237,-190 231,-190 231,-190 178,-190 178,-190 172,-190 166,-184 166,-178 166,-178 166,-90 166,-90 166,-84 172,-78 178,-78"/>
<text text-anchor="middle" x="204.5" y="-178.8" font-family="Helvetica,sans-Serif" font-weight="bold" font-size="9.00">pages</text>
</g>
<!-- src/App.js -->
<g id="node1" class="node">
<title>src/App.js</title>
<g id="a_node1"><a xlink:href="src/App.js" xlink:title="App.js">
<path fill="#ffffcc" stroke="black" d="M64,-97C64,-97 22,-97 22,-97 19,-97 16,-94 16,-91 16,-91 16,-85 16,-85 16,-82 19,-79 22,-79 22,-79 64,-79 64,-79 67,-79 70,-82 70,-85 70,-85 70,-91 70,-91 70,-94 67,-97 64,-97"/>
<text text-anchor="start" x="30" y="-85.8" font-family="Helvetica,sans-Serif" font-size="9.00">App.js</text>
</a>
</g>
</g>
<!-- src/App.scss -->
<g id="node2" class="node">
<title>src/App.scss</title>
<g id="a_node2"><a xlink:href="src/App.scss" xlink:title="App.scss">
<path fill="#ffffcc" stroke="black" d="M143,-34C143,-34 101,-34 101,-34 98,-34 95,-31 95,-28 95,-28 95,-22 95,-22 95,-19 98,-16 101,-16 101,-16 143,-16 143,-16 146,-16 149,-19 149,-22 149,-22 149,-28 149,-28 149,-31 146,-34 143,-34"/>
<text text-anchor="start" x="103.5" y="-22.8" font-family="Helvetica,sans-Serif" font-size="9.00">App.scss</text>
</a>
</g>
</g>
<!-- src/App.js&#45;&gt;src/App.scss -->
<g id="edge1" class="edge">
<title>src/App.js&#45;&gt;src/App.scss</title>
<path fill="none" stroke="#000000" stroke-width="2" stroke-opacity="0.200000" d="M49.1,-78.56C54.93,-68.55 65.31,-52.85 78,-43 80.73,-40.88 83.74,-38.97 86.87,-37.26"/>
<polygon fill="#000000" fill-opacity="0.200000" stroke="#000000" stroke-width="2" stroke-opacity="0.200000" points="88.31,-38.91 92.78,-34.39 86.46,-35.14 88.31,-38.91"/>
</g>
<!-- src/js/components/Screen.js -->
<g id="node3" class="node">
<title>src/js/components/Screen.js</title>
<g id="a_node3"><a xlink:href="src/js/components/Screen.js" xlink:title="Screen.js">
<path fill="#ffffcc" stroke="black" d="M308,-97C308,-97 265,-97 265,-97 262,-97 259,-94 259,-91 259,-91 259,-85 259,-85 259,-82 262,-79 265,-79 265,-79 308,-79 308,-79 311,-79 314,-82 314,-85 314,-85 314,-91 314,-91 314,-94 311,-97 308,-97"/>
<text text-anchor="start" x="267" y="-85.8" font-family="Helvetica,sans-Serif" font-size="9.00">Screen.js</text>
</a>
</g>
</g>
<!-- src/App.js&#45;&gt;src/js/components/Screen.js -->
<g id="edge2" class="edge">
<title>src/App.js&#45;&gt;src/js/components/Screen.js</title>
<path fill="none" stroke="#000000" stroke-width="2" stroke-opacity="0.200000" d="M49.94,-78.51C55.86,-70.02 65.83,-58.15 78,-53 139.57,-26.97 219.14,-56.03 259.52,-74.73"/>
<polygon fill="#000000" fill-opacity="0.200000" stroke="#000000" stroke-width="2" stroke-opacity="0.200000" points="259.2,-76.86 265.52,-77.54 261,-73.06 259.2,-76.86"/>
</g>
<!-- src/js/engine/Engine.js -->
<g id="node4" class="node">
<title>src/js/engine/Engine.js</title>
<g id="a_node4"><a xlink:href="src/js/engine/Engine.js" xlink:title="Engine.js">
<path fill="#ffffcc" stroke="black" d="M143.5,-202C143.5,-202 100.5,-202 100.5,-202 97.5,-202 94.5,-199 94.5,-196 94.5,-196 94.5,-190 94.5,-190 94.5,-187 97.5,-184 100.5,-184 100.5,-184 143.5,-184 143.5,-184 146.5,-184 149.5,-187 149.5,-190 149.5,-190 149.5,-196 149.5,-196 149.5,-199 146.5,-202 143.5,-202"/>
<text text-anchor="start" x="102.5" y="-190.8" font-family="Helvetica,sans-Serif" font-size="9.00">Engine.js</text>
</a>
</g>
</g>
<!-- src/App.js&#45;&gt;src/js/engine/Engine.js -->
<g id="edge3" class="edge">
<title>src/App.js&#45;&gt;src/js/engine/Engine.js</title>
<path fill="none" stroke="#000000" stroke-width="2" stroke-opacity="0.200000" d="M45.62,-97.36C48.95,-114.05 57.98,-149.22 78,-171 80.83,-174.08 84.19,-176.79 87.77,-179.17"/>
<polygon fill="#000000" fill-opacity="0.200000" stroke="#000000" stroke-width="2" stroke-opacity="0.200000" points="87.07,-181.36 93.31,-182.57 89.19,-177.73 87.07,-181.36"/>
</g>
<!-- src/js/main/Control.js -->
<g id="node5" class="node">
<title>src/js/main/Control.js</title>
<g id="a_node5"><a xlink:href="src/js/main/Control.js" xlink:title="Control.js">
<path fill="#ffffcc" stroke="black" d="M144,-142C144,-142 100,-142 100,-142 97,-142 94,-139 94,-136 94,-136 94,-130 94,-130 94,-127 97,-124 100,-124 100,-124 144,-124 144,-124 147,-124 150,-127 150,-130 150,-130 150,-136 150,-136 150,-139 147,-142 144,-142"/>
<text text-anchor="start" x="102" y="-130.8" font-family="Helvetica,sans-Serif" font-size="9.00">Control.js</text>
</a>
</g>
</g>
<!-- src/App.js&#45;&gt;src/js/main/Control.js -->
<g id="edge4" class="edge">
<title>src/App.js&#45;&gt;src/js/main/Control.js</title>
<path fill="none" stroke="#000000" stroke-width="2" stroke-opacity="0.200000" d="M52.76,-97.47C59.21,-103.98 68.49,-112.44 78,-118 80.46,-119.44 83.07,-120.77 85.76,-121.99"/>
<polygon fill="#000000" fill-opacity="0.200000" stroke="#000000" stroke-width="2" stroke-opacity="0.200000" points="85.56,-124 91.91,-124.35 87.16,-120.12 85.56,-124"/>
</g>
<!-- src/js/main/Map.js -->
<g id="node6" class="node">
<title>src/js/main/Map.js</title>
<g id="a_node6"><a xlink:href="src/js/main/Map.js" xlink:title="Map.js">
<path fill="#ffffcc" stroke="black" d="M143,-112C143,-112 101,-112 101,-112 98,-112 95,-109 95,-106 95,-106 95,-100 95,-100 95,-97 98,-94 101,-94 101,-94 143,-94 143,-94 146,-94 149,-97 149,-100 149,-100 149,-106 149,-106 149,-109 146,-112 143,-112"/>
<text text-anchor="start" x="108" y="-100.8" font-family="Helvetica,sans-Serif" font-size="9.00">Map.js</text>
</a>
</g>
</g>
<!-- src/App.js&#45;&gt;src/js/main/Map.js -->
<g id="edge5" class="edge">
<title>src/App.js&#45;&gt;src/js/main/Map.js</title>
<path fill="none" stroke="#000000" stroke-width="2" stroke-opacity="0.200000" d="M70.5,-93.16C75.52,-94.14 80.83,-95.18 86.06,-96.19"/>
<polygon fill="#000000" fill-opacity="0.200000" stroke="#000000" stroke-width="2" stroke-opacity="0.200000" points="86.42,-98.79 92.71,-97.88 87.23,-94.67 86.42,-98.79"/>
</g>
<!-- src/js/main/Panel.js -->
<g id="node7" class="node">
<title>src/js/main/Panel.js</title>
<g id="a_node7"><a xlink:href="src/js/main/Panel.js" xlink:title="Panel.js">
<path fill="#ffffcc" stroke="black" d="M143,-82C143,-82 101,-82 101,-82 98,-82 95,-79 95,-76 95,-76 95,-70 95,-70 95,-67 98,-64 101,-64 101,-64 143,-64 143,-64 146,-64 149,-67 149,-70 149,-70 149,-76 149,-76 149,-79 146,-82 143,-82"/>
<text text-anchor="start" x="105" y="-70.8" font-family="Helvetica,sans-Serif" font-size="9.00">Panel.js</text>
</a>
</g>
</g>
<!-- src/App.js&#45;&gt;src/js/main/Panel.js -->
<g id="edge6" class="edge">
<title>src/App.js&#45;&gt;src/js/main/Panel.js</title>
<path fill="none" stroke="#000000" stroke-width="2" stroke-opacity="0.200000" d="M70.5,-82.84C75.52,-81.86 80.83,-80.82 86.06,-79.81"/>
<polygon fill="#000000" fill-opacity="0.200000" stroke="#000000" stroke-width="2" stroke-opacity="0.200000" points="87.23,-81.33 92.71,-78.12 86.42,-77.21 87.23,-81.33"/>
</g>
<!-- src/js/pages/History.js -->
<g id="node9" class="node">
<title>src/js/pages/History.js</title>
<g id="a_node9"><a xlink:href="src/js/pages/History.js" xlink:title="History.js">
<path fill="#ffffcc" stroke="black" d="M225.5,-164C225.5,-164 183.5,-164 183.5,-164 180.5,-164 177.5,-161 177.5,-158 177.5,-158 177.5,-152 177.5,-152 177.5,-149 180.5,-146 183.5,-146 183.5,-146 225.5,-146 225.5,-146 228.5,-146 231.5,-149 231.5,-152 231.5,-152 231.5,-158 231.5,-158 231.5,-161 228.5,-164 225.5,-164"/>
<text text-anchor="start" x="185.5" y="-152.8" font-family="Helvetica,sans-Serif" font-size="9.00">History.js</text>
</a>
</g>
</g>
<!-- src/js/main/Control.js&#45;&gt;src/js/pages/History.js -->
<g id="edge7" class="edge">
<title>src/js/main/Control.js&#45;&gt;src/js/pages/History.js</title>
<path fill="none" stroke="#000000" stroke-width="2" stroke-opacity="0.200000" d="M150.25,-140.45C156.21,-142.08 162.6,-143.82 168.8,-145.52"/>
<polygon fill="#000000" fill-opacity="0.200000" stroke="#000000" stroke-width="2" stroke-opacity="0.200000" points="168.75,-148.23 175.09,-147.78 169.86,-144.18 168.75,-148.23"/>
</g>
<!-- src/js/pages/Location.js -->
<g id="node10" class="node">
<title>src/js/pages/Location.js</title>
<g id="a_node10"><a xlink:href="src/js/pages/Location.js" xlink:title="Location.js">
<path fill="#ffffcc" stroke="black" d="M229,-134C229,-134 180,-134 180,-134 177,-134 174,-131 174,-128 174,-128 174,-122 174,-122 174,-119 177,-116 180,-116 180,-116 229,-116 229,-116 232,-116 235,-119 235,-122 235,-122 235,-128 235,-128 235,-131 232,-134 229,-134"/>
<text text-anchor="start" x="182" y="-122.8" font-family="Helvetica,sans-Serif" font-size="9.00">Location.js</text>
</a>
</g>
</g>
<!-- src/js/main/Control.js&#45;&gt;src/js/pages/Location.js -->
<g id="edge8" class="edge">
<title>src/js/main/Control.js&#45;&gt;src/js/pages/Location.js</title>
<path fill="none" stroke="#000000" stroke-width="2" stroke-opacity="0.200000" d="M150.25,-130.29C154.93,-129.83 159.87,-129.34 164.77,-128.85"/>
<polygon fill="#000000" fill-opacity="0.200000" stroke="#000000" stroke-width="2" stroke-opacity="0.200000" points="164.75,-130.66 170.51,-127.98 164.33,-126.48 164.75,-130.66"/>
</g>
<!-- src/js/pages/Settings.js -->
<g id="node11" class="node">
<title>src/js/pages/Settings.js</title>
<g id="a_node11"><a xlink:href="src/js/pages/Settings.js" xlink:title="Settings.js">
<path fill="#ffffcc" stroke="black" d="M228,-104C228,-104 181,-104 181,-104 178,-104 175,-101 175,-98 175,-98 175,-92 175,-92 175,-89 178,-86 181,-86 181,-86 228,-86 228,-86 231,-86 234,-89 234,-92 234,-92 234,-98 234,-98 234,-101 231,-104 228,-104"/>
<text text-anchor="start" x="183" y="-92.8" font-family="Helvetica,sans-Serif" font-size="9.00">Settings.js</text>
</a>
</g>
</g>
<!-- src/js/main/Control.js&#45;&gt;src/js/pages/Settings.js -->
<g id="edge9" class="edge">
<title>src/js/main/Control.js&#45;&gt;src/js/pages/Settings.js</title>
<path fill="none" stroke="#000000" stroke-width="2" stroke-opacity="0.200000" d="M148.1,-123.64C151.54,-121.96 154.93,-120.08 158,-118 162.16,-115.18 161.8,-112.77 166,-110 166.79,-109.48 167.6,-108.97 168.43,-108.48"/>
<polygon fill="#000000" fill-opacity="0.200000" stroke="#000000" stroke-width="2" stroke-opacity="0.200000" points="169.87,-110.04 174.21,-105.39 167.92,-106.32 169.87,-110.04"/>
</g>
<!-- src/js/components/Form.js -->
<g id="node8" class="node">
<title>src/js/components/Form.js</title>
<g id="a_node8"><a xlink:href="src/js/components/Form.js" xlink:title="Form.js">
<path fill="#ffffcc" stroke="black" d="M307.5,-127C307.5,-127 265.5,-127 265.5,-127 262.5,-127 259.5,-124 259.5,-121 259.5,-121 259.5,-115 259.5,-115 259.5,-112 262.5,-109 265.5,-109 265.5,-109 307.5,-109 307.5,-109 310.5,-109 313.5,-112 313.5,-115 313.5,-115 313.5,-121 313.5,-121 313.5,-124 310.5,-127 307.5,-127"/>
<text text-anchor="start" x="271" y="-115.8" font-family="Helvetica,sans-Serif" font-size="9.00">Form.js</text>
</a>
</g>
</g>
<!-- src/js/pages/History.js&#45;&gt;src/js/components/Form.js -->
<g id="edge10" class="edge">
<title>src/js/pages/History.js&#45;&gt;src/js/components/Form.js</title>
<path fill="none" stroke="#000000" stroke-width="2" stroke-opacity="0.200000" d="M229.85,-145.66C234.26,-143.85 238.79,-141.93 243,-140 248.69,-137.4 254.7,-134.43 260.36,-131.52"/>
<polygon fill="#000000" fill-opacity="0.200000" stroke="#000000" stroke-width="2" stroke-opacity="0.200000" points="261.97,-133.01 266.32,-128.38 260.03,-129.29 261.97,-133.01"/>
</g>
<!-- src/js/pages/Location.js&#45;&gt;src/js/components/Form.js -->
<g id="edge11" class="edge">
<title>src/js/pages/Location.js&#45;&gt;src/js/components/Form.js</title>
<path fill="none" stroke="#000000" stroke-width="2" stroke-opacity="0.200000" d="M235.29,-122.39C240.18,-121.97 245.28,-121.52 250.28,-121.08"/>
<polygon fill="#000000" fill-opacity="0.200000" stroke="#000000" stroke-width="2" stroke-opacity="0.200000" points="250.32,-122.92 256.11,-120.31 249.95,-118.74 250.32,-122.92"/>
</g>
<!-- src/js/pages/Settings.js&#45;&gt;src/js/components/Form.js -->
<g id="edge12" class="edge">
<title>src/js/pages/Settings.js&#45;&gt;src/js/components/Form.js</title>
<path fill="none" stroke="#000000" stroke-width="2" stroke-opacity="0.200000" d="M234.38,-103.3C239.67,-104.82 245.24,-106.42 250.68,-107.99"/>
<polygon fill="#000000" fill-opacity="0.200000" stroke="#000000" stroke-width="2" stroke-opacity="0.200000" points="250.71,-110.76 257.06,-110.4 251.87,-106.72 250.71,-110.76"/>
</g>
</g>
</svg>
